G04 #@! TF.FileFunction,Paste,Top*
%FSLAX46Y46*%
G04 Gerber Fmt 4.6, Leading zero omitted, Abs format (unit mm)*
G04 Created by KiCad (PCBNEW 4.0.7) date Thursday, September 26, 2019 'PMt' 11:09:44 PM*
%MOMM*%
%LPD*%
G01*
G04 APERTURE LIST*
%ADD10C,0.100000*%
%ADD11R,0.750000X0.800000*%
%ADD12R,1.250000X1.000000*%
%ADD13R,0.326200X0.351200*%
%ADD14R,0.351200X0.326200*%
%ADD15R,0.800000X0.800000*%
%ADD16R,0.900000X0.500000*%
%ADD17R,0.400000X0.400000*%
%ADD18R,0.250000X0.350000*%
%ADD19R,1.600000X0.200000*%
%ADD20R,0.250000X0.400000*%
%ADD21R,0.700000X0.400000*%
%ADD22R,0.500000X0.900000*%
%ADD23R,1.050000X1.400000*%
G04 APERTURE END LIST*
D10*
D11*
X117920000Y-115138000D03*
X117920000Y-116638000D03*
D12*
X124714000Y-115650000D03*
X124714000Y-117650000D03*
D13*
X121162000Y-116967500D03*
X121662000Y-116967500D03*
X121662000Y-115442500D03*
X121162000Y-115442500D03*
D14*
X122174500Y-115705000D03*
X120649500Y-115705000D03*
X122174500Y-116205000D03*
X120649500Y-116205000D03*
X122174500Y-116705000D03*
X120649500Y-116705000D03*
D15*
X120777000Y-109766000D03*
X120777000Y-108166000D03*
D16*
X120777000Y-112510000D03*
X120777000Y-111010000D03*
D17*
X110013000Y-114400000D03*
X110013000Y-117100000D03*
X115163000Y-118500000D03*
X115163000Y-117400000D03*
X115163000Y-116300000D03*
X115163000Y-115200000D03*
X115163000Y-114100000D03*
X115163000Y-113000000D03*
X116063000Y-112450000D03*
X116063000Y-113550000D03*
X116063000Y-114650000D03*
X116063000Y-115750000D03*
X116063000Y-116850000D03*
X116063000Y-117950000D03*
X116063000Y-119050000D03*
X114413000Y-112250000D03*
X113313000Y-112250000D03*
X112213000Y-112250000D03*
X111113000Y-112250000D03*
X110013000Y-112250000D03*
X108913000Y-112250000D03*
X107813000Y-112250000D03*
X107813000Y-119250000D03*
X108913000Y-119250000D03*
X110013000Y-119250000D03*
X111113000Y-119250000D03*
X112213000Y-119250000D03*
X113313000Y-119250000D03*
X114413000Y-119250000D03*
X116063000Y-120150000D03*
X116063000Y-111350000D03*
X114963000Y-120150000D03*
X114963000Y-111350000D03*
X113863000Y-120150000D03*
X113863000Y-111350000D03*
X112763000Y-120150000D03*
X112763000Y-111350000D03*
X111663000Y-120150000D03*
X111663000Y-111350000D03*
X110563000Y-120150000D03*
X110563000Y-111350000D03*
X109463000Y-120150000D03*
X109463000Y-111350000D03*
X108363000Y-120150000D03*
X108363000Y-111350000D03*
X107263000Y-120150000D03*
X107263000Y-111350000D03*
D18*
X118924000Y-110255000D03*
X118924000Y-107805000D03*
X118424000Y-110255000D03*
X118424000Y-107805000D03*
X117924000Y-110255000D03*
X117924000Y-107805000D03*
X117424000Y-110255000D03*
X117424000Y-107805000D03*
D19*
X118174000Y-109030000D03*
D10*
G36*
X120433031Y-120150467D02*
X120143117Y-119860553D01*
X120341107Y-119662563D01*
X120631021Y-119952477D01*
X120433031Y-120150467D01*
X120433031Y-120150467D01*
G37*
G36*
X120079477Y-120504021D02*
X119789563Y-120214107D01*
X119987553Y-120016117D01*
X120277467Y-120306031D01*
X120079477Y-120504021D01*
X120079477Y-120504021D01*
G37*
G36*
X119280447Y-118997883D02*
X118990533Y-118707969D01*
X119188523Y-118509979D01*
X119478437Y-118799893D01*
X119280447Y-118997883D01*
X119280447Y-118997883D01*
G37*
G36*
X118926893Y-119351437D02*
X118636979Y-119061523D01*
X118834969Y-118863533D01*
X119124883Y-119153447D01*
X118926893Y-119351437D01*
X118926893Y-119351437D01*
G37*
G36*
X119436010Y-118446340D02*
X119725924Y-118156426D01*
X119923914Y-118354416D01*
X119634000Y-118644330D01*
X119436010Y-118446340D01*
X119436010Y-118446340D01*
G37*
G36*
X118283426Y-119598924D02*
X118573340Y-119309010D01*
X118771330Y-119507000D01*
X118481416Y-119796914D01*
X118283426Y-119598924D01*
X118283426Y-119598924D01*
G37*
G36*
X119789563Y-118799893D02*
X120079477Y-118509979D01*
X120277467Y-118707969D01*
X119987553Y-118997883D01*
X119789563Y-118799893D01*
X119789563Y-118799893D01*
G37*
G36*
X118636979Y-119952477D02*
X118926893Y-119662563D01*
X119124883Y-119860553D01*
X118834969Y-120150467D01*
X118636979Y-119952477D01*
X118636979Y-119952477D01*
G37*
G36*
X120143117Y-119153447D02*
X120433031Y-118863533D01*
X120631021Y-119061523D01*
X120341107Y-119351437D01*
X120143117Y-119153447D01*
X120143117Y-119153447D01*
G37*
G36*
X118990533Y-120306031D02*
X119280447Y-120016117D01*
X119478437Y-120214107D01*
X119188523Y-120504021D01*
X118990533Y-120306031D01*
X118990533Y-120306031D01*
G37*
G36*
X120496670Y-119507000D02*
X120786584Y-119217086D01*
X120984574Y-119415076D01*
X120694660Y-119704990D01*
X120496670Y-119507000D01*
X120496670Y-119507000D01*
G37*
G36*
X119344086Y-120659584D02*
X119634000Y-120369670D01*
X119831990Y-120567660D01*
X119542076Y-120857574D01*
X119344086Y-120659584D01*
X119344086Y-120659584D01*
G37*
D11*
X117920000Y-113272000D03*
X117920000Y-111772000D03*
D20*
X122267000Y-113506000D03*
X122717000Y-113506000D03*
D21*
X122492000Y-114206000D03*
D22*
X123900000Y-113856000D03*
X125400000Y-113856000D03*
D23*
X123486000Y-108372000D03*
X123486000Y-111972000D03*
X124926000Y-108372000D03*
X124926000Y-111972000D03*
M02*
