G04 #@! TF.FileFunction,Legend,Bot*
%FSLAX46Y46*%
G04 Gerber Fmt 4.6, Leading zero omitted, Abs format (unit mm)*
G04 Created by KiCad (PCBNEW 4.0.7) date Monday, October 21, 2019 'PMt' 07:48:59 PM*
%MOMM*%
%LPD*%
G01*
G04 APERTURE LIST*
%ADD10C,0.100000*%
%ADD11C,0.190500*%
%ADD12C,0.222250*%
G04 APERTURE END LIST*
D10*
D11*
X104973381Y-109680905D02*
X104306714Y-109680905D01*
X104401952Y-109680905D02*
X104354333Y-109728524D01*
X104306714Y-109823762D01*
X104306714Y-109966620D01*
X104354333Y-110061858D01*
X104449571Y-110109477D01*
X104973381Y-110109477D01*
X104449571Y-110109477D02*
X104354333Y-110157096D01*
X104306714Y-110252334D01*
X104306714Y-110395191D01*
X104354333Y-110490429D01*
X104449571Y-110538048D01*
X104973381Y-110538048D01*
X104973381Y-111014238D02*
X104306714Y-111014238D01*
X103973381Y-111014238D02*
X104021000Y-110966619D01*
X104068619Y-111014238D01*
X104021000Y-111061857D01*
X103973381Y-111014238D01*
X104068619Y-111014238D01*
X104306714Y-111490428D02*
X104973381Y-111490428D01*
X104401952Y-111490428D02*
X104354333Y-111538047D01*
X104306714Y-111633285D01*
X104306714Y-111776143D01*
X104354333Y-111871381D01*
X104449571Y-111919000D01*
X104973381Y-111919000D01*
X104973381Y-112395190D02*
X104306714Y-112395190D01*
X103973381Y-112395190D02*
X104021000Y-112347571D01*
X104068619Y-112395190D01*
X104021000Y-112442809D01*
X103973381Y-112395190D01*
X104068619Y-112395190D01*
X104973381Y-113633285D02*
X104306714Y-113633285D01*
X104497190Y-113633285D02*
X104401952Y-113680904D01*
X104354333Y-113728523D01*
X104306714Y-113823761D01*
X104306714Y-113919000D01*
X104925762Y-114633286D02*
X104973381Y-114538048D01*
X104973381Y-114347571D01*
X104925762Y-114252333D01*
X104830524Y-114204714D01*
X104449571Y-114204714D01*
X104354333Y-114252333D01*
X104306714Y-114347571D01*
X104306714Y-114538048D01*
X104354333Y-114633286D01*
X104449571Y-114680905D01*
X104544810Y-114680905D01*
X104640048Y-114204714D01*
X104306714Y-115014238D02*
X104973381Y-115252333D01*
X104306714Y-115490429D01*
X104592429Y-115871381D02*
X104592429Y-116633286D01*
X103973381Y-117299952D02*
X103973381Y-117395191D01*
X104021000Y-117490429D01*
X104068619Y-117538048D01*
X104163857Y-117585667D01*
X104354333Y-117633286D01*
X104592429Y-117633286D01*
X104782905Y-117585667D01*
X104878143Y-117538048D01*
X104925762Y-117490429D01*
X104973381Y-117395191D01*
X104973381Y-117299952D01*
X104925762Y-117204714D01*
X104878143Y-117157095D01*
X104782905Y-117109476D01*
X104592429Y-117061857D01*
X104354333Y-117061857D01*
X104163857Y-117109476D01*
X104068619Y-117157095D01*
X104021000Y-117204714D01*
X103973381Y-117299952D01*
X104306714Y-117919000D02*
X104306714Y-118299952D01*
X104973381Y-118061857D02*
X104116238Y-118061857D01*
X104021000Y-118109476D01*
X103973381Y-118204714D01*
X103973381Y-118299952D01*
D12*
X102597857Y-107106357D02*
X102597857Y-107541786D01*
X103444524Y-107269643D02*
X102355952Y-107269643D01*
X102235000Y-107324071D01*
X102174524Y-107432929D01*
X102174524Y-107541786D01*
X103444524Y-108086072D02*
X103384048Y-107977214D01*
X103263095Y-107922786D01*
X102174524Y-107922786D01*
X103444524Y-108521500D02*
X102597857Y-108521500D01*
X102174524Y-108521500D02*
X102235000Y-108467071D01*
X102295476Y-108521500D01*
X102235000Y-108575928D01*
X102174524Y-108521500D01*
X102295476Y-108521500D01*
X102597857Y-109555643D02*
X103625952Y-109555643D01*
X103746905Y-109501214D01*
X103807381Y-109446786D01*
X103867857Y-109337929D01*
X103867857Y-109174643D01*
X103807381Y-109065786D01*
X103384048Y-109555643D02*
X103444524Y-109446786D01*
X103444524Y-109229072D01*
X103384048Y-109120214D01*
X103323571Y-109065786D01*
X103202619Y-109011357D01*
X102839762Y-109011357D01*
X102718810Y-109065786D01*
X102658333Y-109120214D01*
X102597857Y-109229072D01*
X102597857Y-109446786D01*
X102658333Y-109555643D01*
X103444524Y-110099929D02*
X102174524Y-110099929D01*
X103444524Y-110589786D02*
X102779286Y-110589786D01*
X102658333Y-110535357D01*
X102597857Y-110426500D01*
X102597857Y-110263215D01*
X102658333Y-110154357D01*
X102718810Y-110099929D01*
X102597857Y-110970786D02*
X102597857Y-111406215D01*
X102174524Y-111134072D02*
X103263095Y-111134072D01*
X103384048Y-111188500D01*
X103444524Y-111297358D01*
X103444524Y-111406215D01*
X103384048Y-111732786D02*
X103444524Y-111841643D01*
X103444524Y-112059358D01*
X103384048Y-112168215D01*
X103263095Y-112222643D01*
X103202619Y-112222643D01*
X103081667Y-112168215D01*
X103021190Y-112059358D01*
X103021190Y-111896072D01*
X102960714Y-111787215D01*
X102839762Y-111732786D01*
X102779286Y-111732786D01*
X102658333Y-111787215D01*
X102597857Y-111896072D01*
X102597857Y-112059358D01*
X102658333Y-112168215D01*
X103444524Y-112712501D02*
X102174524Y-112712501D01*
X102960714Y-112821358D02*
X103444524Y-113147929D01*
X102597857Y-113147929D02*
X103081667Y-112712501D01*
X103384048Y-114073215D02*
X103444524Y-113964358D01*
X103444524Y-113746644D01*
X103384048Y-113637787D01*
X103263095Y-113583358D01*
X102779286Y-113583358D01*
X102658333Y-113637787D01*
X102597857Y-113746644D01*
X102597857Y-113964358D01*
X102658333Y-114073215D01*
X102779286Y-114127644D01*
X102900238Y-114127644D01*
X103021190Y-113583358D01*
X102597857Y-114454215D02*
X102597857Y-114889644D01*
X102174524Y-114617501D02*
X103263095Y-114617501D01*
X103384048Y-114671929D01*
X103444524Y-114780787D01*
X103444524Y-114889644D01*
X103384048Y-115760501D02*
X103444524Y-115651644D01*
X103444524Y-115433930D01*
X103384048Y-115325072D01*
X103323571Y-115270644D01*
X103202619Y-115216215D01*
X102839762Y-115216215D01*
X102718810Y-115270644D01*
X102658333Y-115325072D01*
X102597857Y-115433930D01*
X102597857Y-115651644D01*
X102658333Y-115760501D01*
X103444524Y-116250358D02*
X102174524Y-116250358D01*
X103444524Y-116740215D02*
X102779286Y-116740215D01*
X102658333Y-116685786D01*
X102597857Y-116576929D01*
X102597857Y-116413644D01*
X102658333Y-116304786D01*
X102718810Y-116250358D01*
X103323571Y-117284501D02*
X103384048Y-117338929D01*
X103444524Y-117284501D01*
X103384048Y-117230072D01*
X103323571Y-117284501D01*
X103444524Y-117284501D01*
X103384048Y-118318644D02*
X103444524Y-118209787D01*
X103444524Y-117992073D01*
X103384048Y-117883215D01*
X103323571Y-117828787D01*
X103202619Y-117774358D01*
X102839762Y-117774358D01*
X102718810Y-117828787D01*
X102658333Y-117883215D01*
X102597857Y-117992073D01*
X102597857Y-118209787D01*
X102658333Y-118318644D01*
X103444524Y-118971787D02*
X103384048Y-118862929D01*
X103323571Y-118808501D01*
X103202619Y-118754072D01*
X102839762Y-118754072D01*
X102718810Y-118808501D01*
X102658333Y-118862929D01*
X102597857Y-118971787D01*
X102597857Y-119135072D01*
X102658333Y-119243929D01*
X102718810Y-119298358D01*
X102839762Y-119352787D01*
X103202619Y-119352787D01*
X103323571Y-119298358D01*
X103384048Y-119243929D01*
X103444524Y-119135072D01*
X103444524Y-118971787D01*
X103444524Y-119842644D02*
X102597857Y-119842644D01*
X102718810Y-119842644D02*
X102658333Y-119897072D01*
X102597857Y-120005930D01*
X102597857Y-120169215D01*
X102658333Y-120278072D01*
X102779286Y-120332501D01*
X103444524Y-120332501D01*
X102779286Y-120332501D02*
X102658333Y-120386930D01*
X102597857Y-120495787D01*
X102597857Y-120659072D01*
X102658333Y-120767930D01*
X102779286Y-120822358D01*
X103444524Y-120822358D01*
M02*
