G04 #@! TF.FileFunction,Soldermask,Top*
%FSLAX46Y46*%
G04 Gerber Fmt 4.6, Leading zero omitted, Abs format (unit mm)*
G04 Created by KiCad (PCBNEW 4.0.7) date Monday, October 21, 2019 'PMt' 07:48:59 PM*
%MOMM*%
%LPD*%
G01*
G04 APERTURE LIST*
%ADD10C,0.100000*%
G04 APERTURE END LIST*
D10*
G36*
X125045193Y-119011730D02*
X125054458Y-119011794D01*
X125054462Y-119011794D01*
X125054971Y-119011798D01*
X125249561Y-119033625D01*
X125436205Y-119092832D01*
X125607794Y-119187164D01*
X125757793Y-119313028D01*
X125880489Y-119465630D01*
X125971207Y-119639157D01*
X126026492Y-119827000D01*
X126026492Y-119827005D01*
X126026494Y-119827010D01*
X126044239Y-120022007D01*
X126023773Y-120216728D01*
X126023772Y-120216731D01*
X126023771Y-120216741D01*
X125965868Y-120403794D01*
X125872736Y-120576038D01*
X125747923Y-120726912D01*
X125596181Y-120850670D01*
X125423291Y-120942597D01*
X125235838Y-120999192D01*
X125040963Y-121018300D01*
X123117037Y-121018300D01*
X123112807Y-121018270D01*
X123103542Y-121018206D01*
X123103538Y-121018206D01*
X123103029Y-121018202D01*
X122908439Y-120996375D01*
X122721795Y-120937168D01*
X122550206Y-120842836D01*
X122400207Y-120716972D01*
X122277511Y-120564370D01*
X122186793Y-120390843D01*
X122131508Y-120203000D01*
X122131508Y-120202995D01*
X122131506Y-120202990D01*
X122113761Y-120007993D01*
X122134227Y-119813272D01*
X122134228Y-119813269D01*
X122134229Y-119813259D01*
X122192132Y-119626206D01*
X122285264Y-119453962D01*
X122410077Y-119303088D01*
X122561819Y-119179330D01*
X122734709Y-119087403D01*
X122922162Y-119030808D01*
X123117037Y-119011700D01*
X125040963Y-119011700D01*
X125045193Y-119011730D01*
X125045193Y-119011730D01*
G37*
G36*
X119903832Y-120567660D02*
X119542076Y-120929416D01*
X119272244Y-120659584D01*
X119634000Y-120297828D01*
X119903832Y-120567660D01*
X119903832Y-120567660D01*
G37*
G36*
X120349309Y-120306031D02*
X120079477Y-120575863D01*
X119717721Y-120214107D01*
X119987553Y-119944275D01*
X120349309Y-120306031D01*
X120349309Y-120306031D01*
G37*
G36*
X119550279Y-120214107D02*
X119188523Y-120575863D01*
X118918691Y-120306031D01*
X119280447Y-119944275D01*
X119550279Y-120214107D01*
X119550279Y-120214107D01*
G37*
G36*
X113013800Y-120400800D02*
X112512200Y-120400800D01*
X112512200Y-119899200D01*
X113013800Y-119899200D01*
X113013800Y-120400800D01*
X113013800Y-120400800D01*
G37*
G36*
X111913800Y-120400800D02*
X111412200Y-120400800D01*
X111412200Y-119899200D01*
X111913800Y-119899200D01*
X111913800Y-120400800D01*
X111913800Y-120400800D01*
G37*
G36*
X110813800Y-120400800D02*
X110312200Y-120400800D01*
X110312200Y-119899200D01*
X110813800Y-119899200D01*
X110813800Y-120400800D01*
X110813800Y-120400800D01*
G37*
G36*
X109713800Y-120400800D02*
X109212200Y-120400800D01*
X109212200Y-119899200D01*
X109713800Y-119899200D01*
X109713800Y-120400800D01*
X109713800Y-120400800D01*
G37*
G36*
X108613800Y-120400800D02*
X108112200Y-120400800D01*
X108112200Y-119899200D01*
X108613800Y-119899200D01*
X108613800Y-120400800D01*
X108613800Y-120400800D01*
G37*
G36*
X107513800Y-120400800D02*
X107012200Y-120400800D01*
X107012200Y-119899200D01*
X107513800Y-119899200D01*
X107513800Y-120400800D01*
X107513800Y-120400800D01*
G37*
G36*
X116313800Y-120400800D02*
X115812200Y-120400800D01*
X115812200Y-119899200D01*
X116313800Y-119899200D01*
X116313800Y-120400800D01*
X116313800Y-120400800D01*
G37*
G36*
X115213800Y-120400800D02*
X114712200Y-120400800D01*
X114712200Y-119899200D01*
X115213800Y-119899200D01*
X115213800Y-120400800D01*
X115213800Y-120400800D01*
G37*
G36*
X114113800Y-120400800D02*
X113612200Y-120400800D01*
X113612200Y-119899200D01*
X114113800Y-119899200D01*
X114113800Y-120400800D01*
X114113800Y-120400800D01*
G37*
G36*
X120702863Y-119952477D02*
X120433031Y-120222309D01*
X120071275Y-119860553D01*
X120341107Y-119590721D01*
X120702863Y-119952477D01*
X120702863Y-119952477D01*
G37*
G36*
X119196725Y-119860553D02*
X118834969Y-120222309D01*
X118565137Y-119952477D01*
X118926893Y-119590721D01*
X119196725Y-119860553D01*
X119196725Y-119860553D01*
G37*
G36*
X118843172Y-119507000D02*
X118481416Y-119868756D01*
X118211584Y-119598924D01*
X118573340Y-119237168D01*
X118843172Y-119507000D01*
X118843172Y-119507000D01*
G37*
G36*
X121056416Y-119415076D02*
X120694660Y-119776832D01*
X120424828Y-119507000D01*
X120786584Y-119145244D01*
X121056416Y-119415076D01*
X121056416Y-119415076D01*
G37*
G36*
X113563800Y-119500800D02*
X113062200Y-119500800D01*
X113062200Y-118999200D01*
X113563800Y-118999200D01*
X113563800Y-119500800D01*
X113563800Y-119500800D01*
G37*
G36*
X114663800Y-119500800D02*
X114162200Y-119500800D01*
X114162200Y-118999200D01*
X114663800Y-118999200D01*
X114663800Y-119500800D01*
X114663800Y-119500800D01*
G37*
G36*
X112463800Y-119500800D02*
X111962200Y-119500800D01*
X111962200Y-118999200D01*
X112463800Y-118999200D01*
X112463800Y-119500800D01*
X112463800Y-119500800D01*
G37*
G36*
X111363800Y-119500800D02*
X110862200Y-119500800D01*
X110862200Y-118999200D01*
X111363800Y-118999200D01*
X111363800Y-119500800D01*
X111363800Y-119500800D01*
G37*
G36*
X110263800Y-119500800D02*
X109762200Y-119500800D01*
X109762200Y-118999200D01*
X110263800Y-118999200D01*
X110263800Y-119500800D01*
X110263800Y-119500800D01*
G37*
G36*
X109163800Y-119500800D02*
X108662200Y-119500800D01*
X108662200Y-118999200D01*
X109163800Y-118999200D01*
X109163800Y-119500800D01*
X109163800Y-119500800D01*
G37*
G36*
X108063800Y-119500800D02*
X107562200Y-119500800D01*
X107562200Y-118999200D01*
X108063800Y-118999200D01*
X108063800Y-119500800D01*
X108063800Y-119500800D01*
G37*
G36*
X119196725Y-119153447D02*
X118926893Y-119423279D01*
X118565137Y-119061523D01*
X118834969Y-118791691D01*
X119196725Y-119153447D01*
X119196725Y-119153447D01*
G37*
G36*
X120702863Y-119061523D02*
X120341107Y-119423279D01*
X120071275Y-119153447D01*
X120433031Y-118791691D01*
X120702863Y-119061523D01*
X120702863Y-119061523D01*
G37*
G36*
X116313800Y-119300800D02*
X115812200Y-119300800D01*
X115812200Y-118799200D01*
X116313800Y-118799200D01*
X116313800Y-119300800D01*
X116313800Y-119300800D01*
G37*
G36*
X119550279Y-118799893D02*
X119280447Y-119069725D01*
X118918691Y-118707969D01*
X119188523Y-118438137D01*
X119550279Y-118799893D01*
X119550279Y-118799893D01*
G37*
G36*
X120349309Y-118707969D02*
X119987553Y-119069725D01*
X119717721Y-118799893D01*
X120079477Y-118438137D01*
X120349309Y-118707969D01*
X120349309Y-118707969D01*
G37*
G36*
X115413800Y-118750800D02*
X114912200Y-118750800D01*
X114912200Y-118249200D01*
X115413800Y-118249200D01*
X115413800Y-118750800D01*
X115413800Y-118750800D01*
G37*
G36*
X119995756Y-118354416D02*
X119634000Y-118716172D01*
X119364168Y-118446340D01*
X119725924Y-118084584D01*
X119995756Y-118354416D01*
X119995756Y-118354416D01*
G37*
G36*
X116313800Y-118200800D02*
X115812200Y-118200800D01*
X115812200Y-117699200D01*
X116313800Y-117699200D01*
X116313800Y-118200800D01*
X116313800Y-118200800D01*
G37*
G36*
X125389800Y-118200800D02*
X124038200Y-118200800D01*
X124038200Y-117099200D01*
X125389800Y-117099200D01*
X125389800Y-118200800D01*
X125389800Y-118200800D01*
G37*
G36*
X115413800Y-117650800D02*
X114912200Y-117650800D01*
X114912200Y-117149200D01*
X115413800Y-117149200D01*
X115413800Y-117650800D01*
X115413800Y-117650800D01*
G37*
G36*
X110263800Y-117350800D02*
X109762200Y-117350800D01*
X109762200Y-116849200D01*
X110263800Y-116849200D01*
X110263800Y-117350800D01*
X110263800Y-117350800D01*
G37*
G36*
X121837800Y-117155800D02*
X121486200Y-117155800D01*
X121486200Y-116779200D01*
X121837800Y-116779200D01*
X121837800Y-117155800D01*
X121837800Y-117155800D01*
G37*
G36*
X121337800Y-117155800D02*
X120986200Y-117155800D01*
X120986200Y-116779200D01*
X121337800Y-116779200D01*
X121337800Y-117155800D01*
X121337800Y-117155800D01*
G37*
G36*
X116313800Y-117100800D02*
X115812200Y-117100800D01*
X115812200Y-116599200D01*
X116313800Y-116599200D01*
X116313800Y-117100800D01*
X116313800Y-117100800D01*
G37*
G36*
X118345800Y-117088800D02*
X117494200Y-117088800D01*
X117494200Y-116187200D01*
X118345800Y-116187200D01*
X118345800Y-117088800D01*
X118345800Y-117088800D01*
G37*
G36*
X120837800Y-116880800D02*
X120461200Y-116880800D01*
X120461200Y-116529200D01*
X120837800Y-116529200D01*
X120837800Y-116880800D01*
X120837800Y-116880800D01*
G37*
G36*
X122362800Y-116880800D02*
X121986200Y-116880800D01*
X121986200Y-116529200D01*
X122362800Y-116529200D01*
X122362800Y-116880800D01*
X122362800Y-116880800D01*
G37*
G36*
X115413800Y-116550800D02*
X114912200Y-116550800D01*
X114912200Y-116049200D01*
X115413800Y-116049200D01*
X115413800Y-116550800D01*
X115413800Y-116550800D01*
G37*
G36*
X122362800Y-116380800D02*
X121986200Y-116380800D01*
X121986200Y-116029200D01*
X122362800Y-116029200D01*
X122362800Y-116380800D01*
X122362800Y-116380800D01*
G37*
G36*
X120837800Y-116380800D02*
X120461200Y-116380800D01*
X120461200Y-116029200D01*
X120837800Y-116029200D01*
X120837800Y-116380800D01*
X120837800Y-116380800D01*
G37*
G36*
X125389800Y-116200800D02*
X124038200Y-116200800D01*
X124038200Y-115099200D01*
X125389800Y-115099200D01*
X125389800Y-116200800D01*
X125389800Y-116200800D01*
G37*
G36*
X116313800Y-116000800D02*
X115812200Y-116000800D01*
X115812200Y-115499200D01*
X116313800Y-115499200D01*
X116313800Y-116000800D01*
X116313800Y-116000800D01*
G37*
G36*
X122362800Y-115880800D02*
X121986200Y-115880800D01*
X121986200Y-115529200D01*
X122362800Y-115529200D01*
X122362800Y-115880800D01*
X122362800Y-115880800D01*
G37*
G36*
X120837800Y-115880800D02*
X120461200Y-115880800D01*
X120461200Y-115529200D01*
X120837800Y-115529200D01*
X120837800Y-115880800D01*
X120837800Y-115880800D01*
G37*
G36*
X121337800Y-115630800D02*
X120986200Y-115630800D01*
X120986200Y-115254200D01*
X121337800Y-115254200D01*
X121337800Y-115630800D01*
X121337800Y-115630800D01*
G37*
G36*
X121837800Y-115630800D02*
X121486200Y-115630800D01*
X121486200Y-115254200D01*
X121837800Y-115254200D01*
X121837800Y-115630800D01*
X121837800Y-115630800D01*
G37*
G36*
X118345800Y-115588800D02*
X117494200Y-115588800D01*
X117494200Y-114687200D01*
X118345800Y-114687200D01*
X118345800Y-115588800D01*
X118345800Y-115588800D01*
G37*
G36*
X115413800Y-115450800D02*
X114912200Y-115450800D01*
X114912200Y-114949200D01*
X115413800Y-114949200D01*
X115413800Y-115450800D01*
X115413800Y-115450800D01*
G37*
G36*
X116313800Y-114900800D02*
X115812200Y-114900800D01*
X115812200Y-114399200D01*
X116313800Y-114399200D01*
X116313800Y-114900800D01*
X116313800Y-114900800D01*
G37*
G36*
X110263800Y-114650800D02*
X109762200Y-114650800D01*
X109762200Y-114149200D01*
X110263800Y-114149200D01*
X110263800Y-114650800D01*
X110263800Y-114650800D01*
G37*
G36*
X122892800Y-114456800D02*
X122091200Y-114456800D01*
X122091200Y-113955200D01*
X122892800Y-113955200D01*
X122892800Y-114456800D01*
X122892800Y-114456800D01*
G37*
G36*
X124200800Y-114356800D02*
X123599200Y-114356800D01*
X123599200Y-113355200D01*
X124200800Y-113355200D01*
X124200800Y-114356800D01*
X124200800Y-114356800D01*
G37*
G36*
X125700800Y-114356800D02*
X125099200Y-114356800D01*
X125099200Y-113355200D01*
X125700800Y-113355200D01*
X125700800Y-114356800D01*
X125700800Y-114356800D01*
G37*
G36*
X115413800Y-114350800D02*
X114912200Y-114350800D01*
X114912200Y-113849200D01*
X115413800Y-113849200D01*
X115413800Y-114350800D01*
X115413800Y-114350800D01*
G37*
G36*
X116313800Y-113800800D02*
X115812200Y-113800800D01*
X115812200Y-113299200D01*
X116313800Y-113299200D01*
X116313800Y-113800800D01*
X116313800Y-113800800D01*
G37*
G36*
X122442800Y-113756800D02*
X122091200Y-113756800D01*
X122091200Y-113255200D01*
X122442800Y-113255200D01*
X122442800Y-113756800D01*
X122442800Y-113756800D01*
G37*
G36*
X122892800Y-113756800D02*
X122541200Y-113756800D01*
X122541200Y-113255200D01*
X122892800Y-113255200D01*
X122892800Y-113756800D01*
X122892800Y-113756800D01*
G37*
G36*
X118345800Y-113722800D02*
X117494200Y-113722800D01*
X117494200Y-112821200D01*
X118345800Y-112821200D01*
X118345800Y-113722800D01*
X118345800Y-113722800D01*
G37*
G36*
X115413800Y-113250800D02*
X114912200Y-113250800D01*
X114912200Y-112749200D01*
X115413800Y-112749200D01*
X115413800Y-113250800D01*
X115413800Y-113250800D01*
G37*
G36*
X121277800Y-112810800D02*
X120276200Y-112810800D01*
X120276200Y-112209200D01*
X121277800Y-112209200D01*
X121277800Y-112810800D01*
X121277800Y-112810800D01*
G37*
G36*
X125501800Y-112722800D02*
X124350200Y-112722800D01*
X124350200Y-111221200D01*
X125501800Y-111221200D01*
X125501800Y-112722800D01*
X125501800Y-112722800D01*
G37*
G36*
X124061800Y-112722800D02*
X122910200Y-112722800D01*
X122910200Y-111221200D01*
X124061800Y-111221200D01*
X124061800Y-112722800D01*
X124061800Y-112722800D01*
G37*
G36*
X116313800Y-112700800D02*
X115812200Y-112700800D01*
X115812200Y-112199200D01*
X116313800Y-112199200D01*
X116313800Y-112700800D01*
X116313800Y-112700800D01*
G37*
G36*
X114663800Y-112500800D02*
X114162200Y-112500800D01*
X114162200Y-111999200D01*
X114663800Y-111999200D01*
X114663800Y-112500800D01*
X114663800Y-112500800D01*
G37*
G36*
X113563800Y-112500800D02*
X113062200Y-112500800D01*
X113062200Y-111999200D01*
X113563800Y-111999200D01*
X113563800Y-112500800D01*
X113563800Y-112500800D01*
G37*
G36*
X112463800Y-112500800D02*
X111962200Y-112500800D01*
X111962200Y-111999200D01*
X112463800Y-111999200D01*
X112463800Y-112500800D01*
X112463800Y-112500800D01*
G37*
G36*
X111363800Y-112500800D02*
X110862200Y-112500800D01*
X110862200Y-111999200D01*
X111363800Y-111999200D01*
X111363800Y-112500800D01*
X111363800Y-112500800D01*
G37*
G36*
X110263800Y-112500800D02*
X109762200Y-112500800D01*
X109762200Y-111999200D01*
X110263800Y-111999200D01*
X110263800Y-112500800D01*
X110263800Y-112500800D01*
G37*
G36*
X109163800Y-112500800D02*
X108662200Y-112500800D01*
X108662200Y-111999200D01*
X109163800Y-111999200D01*
X109163800Y-112500800D01*
X109163800Y-112500800D01*
G37*
G36*
X108063800Y-112500800D02*
X107562200Y-112500800D01*
X107562200Y-111999200D01*
X108063800Y-111999200D01*
X108063800Y-112500800D01*
X108063800Y-112500800D01*
G37*
G36*
X118345800Y-112222800D02*
X117494200Y-112222800D01*
X117494200Y-111321200D01*
X118345800Y-111321200D01*
X118345800Y-112222800D01*
X118345800Y-112222800D01*
G37*
G36*
X116313800Y-111600800D02*
X115812200Y-111600800D01*
X115812200Y-111099200D01*
X116313800Y-111099200D01*
X116313800Y-111600800D01*
X116313800Y-111600800D01*
G37*
G36*
X115213800Y-111600800D02*
X114712200Y-111600800D01*
X114712200Y-111099200D01*
X115213800Y-111099200D01*
X115213800Y-111600800D01*
X115213800Y-111600800D01*
G37*
G36*
X114113800Y-111600800D02*
X113612200Y-111600800D01*
X113612200Y-111099200D01*
X114113800Y-111099200D01*
X114113800Y-111600800D01*
X114113800Y-111600800D01*
G37*
G36*
X113013800Y-111600800D02*
X112512200Y-111600800D01*
X112512200Y-111099200D01*
X113013800Y-111099200D01*
X113013800Y-111600800D01*
X113013800Y-111600800D01*
G37*
G36*
X111913800Y-111600800D02*
X111412200Y-111600800D01*
X111412200Y-111099200D01*
X111913800Y-111099200D01*
X111913800Y-111600800D01*
X111913800Y-111600800D01*
G37*
G36*
X110813800Y-111600800D02*
X110312200Y-111600800D01*
X110312200Y-111099200D01*
X110813800Y-111099200D01*
X110813800Y-111600800D01*
X110813800Y-111600800D01*
G37*
G36*
X109713800Y-111600800D02*
X109212200Y-111600800D01*
X109212200Y-111099200D01*
X109713800Y-111099200D01*
X109713800Y-111600800D01*
X109713800Y-111600800D01*
G37*
G36*
X108613800Y-111600800D02*
X108112200Y-111600800D01*
X108112200Y-111099200D01*
X108613800Y-111099200D01*
X108613800Y-111600800D01*
X108613800Y-111600800D01*
G37*
G36*
X107513800Y-111600800D02*
X107012200Y-111600800D01*
X107012200Y-111099200D01*
X107513800Y-111099200D01*
X107513800Y-111600800D01*
X107513800Y-111600800D01*
G37*
G36*
X121277800Y-111310800D02*
X120276200Y-111310800D01*
X120276200Y-110709200D01*
X121277800Y-110709200D01*
X121277800Y-111310800D01*
X121277800Y-111310800D01*
G37*
G36*
X117599800Y-110480800D02*
X117248200Y-110480800D01*
X117248200Y-110029200D01*
X117599800Y-110029200D01*
X117599800Y-110480800D01*
X117599800Y-110480800D01*
G37*
G36*
X118099800Y-110480800D02*
X117748200Y-110480800D01*
X117748200Y-110029200D01*
X118099800Y-110029200D01*
X118099800Y-110480800D01*
X118099800Y-110480800D01*
G37*
G36*
X118599800Y-110480800D02*
X118248200Y-110480800D01*
X118248200Y-110029200D01*
X118599800Y-110029200D01*
X118599800Y-110480800D01*
X118599800Y-110480800D01*
G37*
G36*
X119099800Y-110480800D02*
X118748200Y-110480800D01*
X118748200Y-110029200D01*
X119099800Y-110029200D01*
X119099800Y-110480800D01*
X119099800Y-110480800D01*
G37*
G36*
X121227800Y-110216800D02*
X120326200Y-110216800D01*
X120326200Y-109315200D01*
X121227800Y-109315200D01*
X121227800Y-110216800D01*
X121227800Y-110216800D01*
G37*
G36*
X115557300Y-109588300D02*
X113550700Y-109588300D01*
X113550700Y-107581700D01*
X115557300Y-107581700D01*
X115557300Y-109588300D01*
X115557300Y-109588300D01*
G37*
G36*
X113017300Y-109588300D02*
X111010700Y-109588300D01*
X111010700Y-107581700D01*
X113017300Y-107581700D01*
X113017300Y-109588300D01*
X113017300Y-109588300D01*
G37*
G36*
X110477300Y-109588300D02*
X108470700Y-109588300D01*
X108470700Y-107581700D01*
X110477300Y-107581700D01*
X110477300Y-109588300D01*
X110477300Y-109588300D01*
G37*
G36*
X107937300Y-109588300D02*
X105930700Y-109588300D01*
X105930700Y-107581700D01*
X107937300Y-107581700D01*
X107937300Y-109588300D01*
X107937300Y-109588300D01*
G37*
G36*
X105397300Y-109588300D02*
X103390700Y-109588300D01*
X103390700Y-107581700D01*
X105397300Y-107581700D01*
X105397300Y-109588300D01*
X105397300Y-109588300D01*
G37*
G36*
X119024800Y-109180800D02*
X117323200Y-109180800D01*
X117323200Y-108879200D01*
X119024800Y-108879200D01*
X119024800Y-109180800D01*
X119024800Y-109180800D01*
G37*
G36*
X125501800Y-109122800D02*
X124350200Y-109122800D01*
X124350200Y-107621200D01*
X125501800Y-107621200D01*
X125501800Y-109122800D01*
X125501800Y-109122800D01*
G37*
G36*
X124061800Y-109122800D02*
X122910200Y-109122800D01*
X122910200Y-107621200D01*
X124061800Y-107621200D01*
X124061800Y-109122800D01*
X124061800Y-109122800D01*
G37*
G36*
X121227800Y-108616800D02*
X120326200Y-108616800D01*
X120326200Y-107715200D01*
X121227800Y-107715200D01*
X121227800Y-108616800D01*
X121227800Y-108616800D01*
G37*
G36*
X118599800Y-108030800D02*
X118248200Y-108030800D01*
X118248200Y-107579200D01*
X118599800Y-107579200D01*
X118599800Y-108030800D01*
X118599800Y-108030800D01*
G37*
G36*
X117599800Y-108030800D02*
X117248200Y-108030800D01*
X117248200Y-107579200D01*
X117599800Y-107579200D01*
X117599800Y-108030800D01*
X117599800Y-108030800D01*
G37*
G36*
X118099800Y-108030800D02*
X117748200Y-108030800D01*
X117748200Y-107579200D01*
X118099800Y-107579200D01*
X118099800Y-108030800D01*
X118099800Y-108030800D01*
G37*
G36*
X119099800Y-108030800D02*
X118748200Y-108030800D01*
X118748200Y-107579200D01*
X119099800Y-107579200D01*
X119099800Y-108030800D01*
X119099800Y-108030800D01*
G37*
M02*
