G04 #@! TF.FileFunction,Copper,L2,Bot,Signal*
%FSLAX46Y46*%
G04 Gerber Fmt 4.6, Leading zero omitted, Abs format (unit mm)*
G04 Created by KiCad (PCBNEW 4.0.7) date Monday, October 21, 2019 'PMt' 07:48:59 PM*
%MOMM*%
%LPD*%
G01*
G04 APERTURE LIST*
%ADD10C,0.100000*%
%ADD11R,2.540000X6.604000*%
%ADD12R,5.080000X5.080000*%
%ADD13C,0.508000*%
%ADD14C,0.203200*%
%ADD15C,0.152400*%
G04 APERTURE END LIST*
D10*
D11*
X124968000Y-113792000D03*
D12*
X115824000Y-113792000D03*
D11*
X106680000Y-113792000D03*
D13*
X106934000Y-108585000D03*
X109474000Y-108585000D03*
X110871000Y-113411000D03*
X108585000Y-117983000D03*
X104394000Y-108585000D03*
X113404000Y-117710400D03*
X118772900Y-115478300D03*
X116861100Y-110347900D03*
X119128800Y-116059800D03*
X112852400Y-115696600D03*
X119588400Y-114853100D03*
X114544200Y-117508800D03*
X118216900Y-118205900D03*
X117540900Y-118566100D03*
X118636800Y-107213000D03*
X120093000Y-117037000D03*
X113431300Y-118470800D03*
X112014000Y-108585000D03*
X119536200Y-107357200D03*
X112698400Y-116360800D03*
X114554000Y-108585000D03*
X123270000Y-115272800D03*
X111936900Y-116932700D03*
X119944300Y-114102800D03*
X119225600Y-110857200D03*
X119228800Y-117076400D03*
X117682500Y-107213900D03*
X111246100Y-116988100D03*
X125120800Y-118606200D03*
D14*
X115824000Y-113792000D02*
X115824000Y-114490500D01*
X115824000Y-114490500D02*
X115824000Y-115189100D01*
X113404000Y-117609100D02*
X113404000Y-117710400D01*
X115824000Y-115189100D02*
X113404000Y-117609100D01*
X117785100Y-114490500D02*
X118772900Y-115478300D01*
X115824000Y-114490500D02*
X117785100Y-114490500D01*
X119281300Y-115907300D02*
X119128800Y-116059800D01*
X119281300Y-115264900D02*
X119281300Y-115907300D01*
X119080100Y-115063700D02*
X119281300Y-115264900D01*
X119080100Y-111539900D02*
X119080100Y-115063700D01*
X117888100Y-110347900D02*
X119080100Y-111539900D01*
X116861100Y-110347900D02*
X117888100Y-110347900D01*
X113817000Y-110347900D02*
X116861100Y-110347900D01*
X112852400Y-111312500D02*
X113817000Y-110347900D01*
X112852400Y-115696600D02*
X112852400Y-111312500D01*
X118216900Y-118205900D02*
X118216900Y-117508800D01*
X118216900Y-117352500D02*
X118216900Y-117508800D01*
X119001300Y-116568100D02*
X118216900Y-117352500D01*
X119339500Y-116568100D02*
X119001300Y-116568100D01*
X119638700Y-116268900D02*
X119339500Y-116568100D01*
X119638700Y-114903400D02*
X119638700Y-116268900D01*
X119588400Y-114853100D02*
X119638700Y-114903400D01*
X118216900Y-117508800D02*
X114544200Y-117508800D01*
X120452700Y-109028900D02*
X118636800Y-107213000D01*
X120452700Y-116677300D02*
X120452700Y-109028900D01*
X120093000Y-117037000D02*
X120452700Y-116677300D01*
X117697700Y-118722900D02*
X117540900Y-118566100D01*
X118489600Y-118722900D02*
X117697700Y-118722900D01*
X120093000Y-117119500D02*
X118489600Y-118722900D01*
X120093000Y-117037000D02*
X120093000Y-117119500D01*
X113526600Y-118566100D02*
X113431300Y-118470800D01*
X117540900Y-118566100D02*
X113526600Y-118566100D01*
X120830200Y-108651200D02*
X119536200Y-107357200D01*
X120830200Y-117088800D02*
X120830200Y-108651200D01*
X118840200Y-119078800D02*
X120830200Y-117088800D01*
X113255300Y-119078800D02*
X118840200Y-119078800D01*
X112698400Y-118521900D02*
X113255300Y-119078800D01*
X112698400Y-116360800D02*
X112698400Y-118521900D01*
X124968000Y-113792000D02*
X123443700Y-113792000D01*
X123443700Y-115099100D02*
X123270000Y-115272800D01*
X123443700Y-113792000D02*
X123443700Y-115099100D01*
X108796200Y-113792000D02*
X106680000Y-113792000D01*
X111936900Y-116932700D02*
X108796200Y-113792000D01*
X111936900Y-118288200D02*
X111936900Y-116932700D01*
X113083400Y-119434700D02*
X111936900Y-118288200D01*
X119108100Y-119434700D02*
X113083400Y-119434700D01*
X123270000Y-115272800D02*
X119108100Y-119434700D01*
X119334600Y-117076400D02*
X119228800Y-117076400D01*
X120096800Y-116314200D02*
X119334600Y-117076400D01*
X120096800Y-114255300D02*
X120096800Y-116314200D01*
X119944300Y-114102800D02*
X120096800Y-114255300D01*
X119944300Y-111575900D02*
X119944300Y-114102800D01*
X119225600Y-110857200D02*
X119944300Y-111575900D01*
X117682500Y-109314100D02*
X119225600Y-110857200D01*
X117682500Y-107213900D02*
X117682500Y-109314100D01*
X111246100Y-118128300D02*
X111246100Y-116988100D01*
X112917700Y-119799900D02*
X111246100Y-118128300D01*
X121284000Y-119799900D02*
X112917700Y-119799900D01*
X122477700Y-118606200D02*
X121284000Y-119799900D01*
X125120800Y-118606200D02*
X122477700Y-118606200D01*
D15*
G36*
X126669800Y-121589800D02*
X107010200Y-121589800D01*
X107010200Y-117327078D01*
X107950000Y-117327078D01*
X108034714Y-117311138D01*
X108112518Y-117261072D01*
X108164715Y-117184680D01*
X108183078Y-117094000D01*
X108183078Y-114122200D01*
X108659426Y-114122200D01*
X111074186Y-116536959D01*
X110973086Y-116578733D01*
X110837210Y-116714372D01*
X110763584Y-116891684D01*
X110763416Y-117083674D01*
X110836733Y-117261114D01*
X110915900Y-117340419D01*
X110915900Y-118128300D01*
X110941035Y-118254662D01*
X111012613Y-118361787D01*
X112684211Y-120033384D01*
X112684213Y-120033387D01*
X112791338Y-120104965D01*
X112917700Y-120130100D01*
X121284000Y-120130100D01*
X121410362Y-120104965D01*
X121517487Y-120033387D01*
X122004874Y-119546000D01*
X121993506Y-119563013D01*
X121903600Y-120015000D01*
X121993506Y-120466987D01*
X122249536Y-120850164D01*
X122632713Y-121106194D01*
X123084700Y-121196100D01*
X125073300Y-121196100D01*
X125525287Y-121106194D01*
X125908464Y-120850164D01*
X126164494Y-120466987D01*
X126254400Y-120015000D01*
X126164494Y-119563013D01*
X125908464Y-119179836D01*
X125525287Y-118923806D01*
X125492307Y-118917246D01*
X125529690Y-118879928D01*
X125603316Y-118702616D01*
X125603484Y-118510626D01*
X125530167Y-118333186D01*
X125394528Y-118197310D01*
X125217216Y-118123684D01*
X125025226Y-118123516D01*
X124847786Y-118196833D01*
X124768481Y-118276000D01*
X122477705Y-118276000D01*
X122477700Y-118275999D01*
X122351338Y-118301135D01*
X122244213Y-118372713D01*
X122244211Y-118372716D01*
X121147226Y-119469700D01*
X119540074Y-119469700D01*
X123254386Y-115755387D01*
X123365574Y-115755484D01*
X123464922Y-115714434D01*
X123464922Y-117094000D01*
X123480862Y-117178714D01*
X123530928Y-117256518D01*
X123607320Y-117308715D01*
X123698000Y-117327078D01*
X126238000Y-117327078D01*
X126322714Y-117311138D01*
X126400518Y-117261072D01*
X126452715Y-117184680D01*
X126471078Y-117094000D01*
X126471078Y-110490000D01*
X126455138Y-110405286D01*
X126405072Y-110327482D01*
X126328680Y-110275285D01*
X126238000Y-110256922D01*
X123698000Y-110256922D01*
X123613286Y-110272862D01*
X123535482Y-110322928D01*
X123483285Y-110399320D01*
X123464922Y-110490000D01*
X123464922Y-113461800D01*
X123443700Y-113461800D01*
X123317338Y-113486935D01*
X123210213Y-113558513D01*
X123138635Y-113665638D01*
X123113500Y-113792000D01*
X123113500Y-114815290D01*
X122996986Y-114863433D01*
X122861110Y-114999072D01*
X122787484Y-115176384D01*
X122787386Y-115288441D01*
X121160400Y-116915427D01*
X121160400Y-108651200D01*
X121135265Y-108524838D01*
X121063687Y-108417713D01*
X121063684Y-108417711D01*
X120018787Y-107372813D01*
X120018884Y-107261626D01*
X119945567Y-107084186D01*
X119809928Y-106948310D01*
X119632616Y-106874684D01*
X119440626Y-106874516D01*
X119263186Y-106947833D01*
X119127310Y-107083472D01*
X119116355Y-107109854D01*
X119046167Y-106939986D01*
X118910528Y-106804110D01*
X118733216Y-106730484D01*
X118541226Y-106730316D01*
X118363786Y-106803633D01*
X118227910Y-106939272D01*
X118159387Y-107104295D01*
X118091867Y-106940886D01*
X117956228Y-106805010D01*
X117778916Y-106731384D01*
X117586926Y-106731216D01*
X117409486Y-106804533D01*
X117273610Y-106940172D01*
X117199984Y-107117484D01*
X117199816Y-107309474D01*
X117273133Y-107486914D01*
X117352300Y-107566219D01*
X117352300Y-109314100D01*
X117377435Y-109440462D01*
X117449013Y-109547587D01*
X117926830Y-110025404D01*
X117888100Y-110017700D01*
X117213381Y-110017700D01*
X117134828Y-109939010D01*
X116957516Y-109865384D01*
X116765526Y-109865216D01*
X116588086Y-109938533D01*
X116508781Y-110017700D01*
X113817000Y-110017700D01*
X113690638Y-110042835D01*
X113583513Y-110114413D01*
X113583511Y-110114416D01*
X112618913Y-111079013D01*
X112547335Y-111186138D01*
X112522200Y-111312500D01*
X112522200Y-115344319D01*
X112443510Y-115422872D01*
X112369884Y-115600184D01*
X112369716Y-115792174D01*
X112434043Y-115947856D01*
X112425386Y-115951433D01*
X112289510Y-116087072D01*
X112215884Y-116264384D01*
X112215716Y-116456374D01*
X112266852Y-116580132D01*
X112210628Y-116523810D01*
X112033316Y-116450184D01*
X111921259Y-116450086D01*
X109029687Y-113558513D01*
X108922562Y-113486935D01*
X108796200Y-113461800D01*
X108183078Y-113461800D01*
X108183078Y-110490000D01*
X108167138Y-110405286D01*
X108117072Y-110327482D01*
X108040680Y-110275285D01*
X107950000Y-110256922D01*
X107010200Y-110256922D01*
X107010200Y-109067667D01*
X107029574Y-109067684D01*
X107207014Y-108994367D01*
X107342890Y-108858728D01*
X107416516Y-108681416D01*
X107416516Y-108680574D01*
X108991316Y-108680574D01*
X109064633Y-108858014D01*
X109200272Y-108993890D01*
X109377584Y-109067516D01*
X109569574Y-109067684D01*
X109747014Y-108994367D01*
X109882890Y-108858728D01*
X109956516Y-108681416D01*
X109956516Y-108680574D01*
X111531316Y-108680574D01*
X111604633Y-108858014D01*
X111740272Y-108993890D01*
X111917584Y-109067516D01*
X112109574Y-109067684D01*
X112287014Y-108994367D01*
X112422890Y-108858728D01*
X112496516Y-108681416D01*
X112496516Y-108680574D01*
X114071316Y-108680574D01*
X114144633Y-108858014D01*
X114280272Y-108993890D01*
X114457584Y-109067516D01*
X114649574Y-109067684D01*
X114827014Y-108994367D01*
X114962890Y-108858728D01*
X115036516Y-108681416D01*
X115036684Y-108489426D01*
X114963367Y-108311986D01*
X114827728Y-108176110D01*
X114650416Y-108102484D01*
X114458426Y-108102316D01*
X114280986Y-108175633D01*
X114145110Y-108311272D01*
X114071484Y-108488584D01*
X114071316Y-108680574D01*
X112496516Y-108680574D01*
X112496684Y-108489426D01*
X112423367Y-108311986D01*
X112287728Y-108176110D01*
X112110416Y-108102484D01*
X111918426Y-108102316D01*
X111740986Y-108175633D01*
X111605110Y-108311272D01*
X111531484Y-108488584D01*
X111531316Y-108680574D01*
X109956516Y-108680574D01*
X109956684Y-108489426D01*
X109883367Y-108311986D01*
X109747728Y-108176110D01*
X109570416Y-108102484D01*
X109378426Y-108102316D01*
X109200986Y-108175633D01*
X109065110Y-108311272D01*
X108991484Y-108488584D01*
X108991316Y-108680574D01*
X107416516Y-108680574D01*
X107416684Y-108489426D01*
X107343367Y-108311986D01*
X107207728Y-108176110D01*
X107030416Y-108102484D01*
X107010200Y-108102466D01*
X107010200Y-106629200D01*
X126669800Y-106629200D01*
X126669800Y-121589800D01*
X126669800Y-121589800D01*
G37*
X126669800Y-121589800D02*
X107010200Y-121589800D01*
X107010200Y-117327078D01*
X107950000Y-117327078D01*
X108034714Y-117311138D01*
X108112518Y-117261072D01*
X108164715Y-117184680D01*
X108183078Y-117094000D01*
X108183078Y-114122200D01*
X108659426Y-114122200D01*
X111074186Y-116536959D01*
X110973086Y-116578733D01*
X110837210Y-116714372D01*
X110763584Y-116891684D01*
X110763416Y-117083674D01*
X110836733Y-117261114D01*
X110915900Y-117340419D01*
X110915900Y-118128300D01*
X110941035Y-118254662D01*
X111012613Y-118361787D01*
X112684211Y-120033384D01*
X112684213Y-120033387D01*
X112791338Y-120104965D01*
X112917700Y-120130100D01*
X121284000Y-120130100D01*
X121410362Y-120104965D01*
X121517487Y-120033387D01*
X122004874Y-119546000D01*
X121993506Y-119563013D01*
X121903600Y-120015000D01*
X121993506Y-120466987D01*
X122249536Y-120850164D01*
X122632713Y-121106194D01*
X123084700Y-121196100D01*
X125073300Y-121196100D01*
X125525287Y-121106194D01*
X125908464Y-120850164D01*
X126164494Y-120466987D01*
X126254400Y-120015000D01*
X126164494Y-119563013D01*
X125908464Y-119179836D01*
X125525287Y-118923806D01*
X125492307Y-118917246D01*
X125529690Y-118879928D01*
X125603316Y-118702616D01*
X125603484Y-118510626D01*
X125530167Y-118333186D01*
X125394528Y-118197310D01*
X125217216Y-118123684D01*
X125025226Y-118123516D01*
X124847786Y-118196833D01*
X124768481Y-118276000D01*
X122477705Y-118276000D01*
X122477700Y-118275999D01*
X122351338Y-118301135D01*
X122244213Y-118372713D01*
X122244211Y-118372716D01*
X121147226Y-119469700D01*
X119540074Y-119469700D01*
X123254386Y-115755387D01*
X123365574Y-115755484D01*
X123464922Y-115714434D01*
X123464922Y-117094000D01*
X123480862Y-117178714D01*
X123530928Y-117256518D01*
X123607320Y-117308715D01*
X123698000Y-117327078D01*
X126238000Y-117327078D01*
X126322714Y-117311138D01*
X126400518Y-117261072D01*
X126452715Y-117184680D01*
X126471078Y-117094000D01*
X126471078Y-110490000D01*
X126455138Y-110405286D01*
X126405072Y-110327482D01*
X126328680Y-110275285D01*
X126238000Y-110256922D01*
X123698000Y-110256922D01*
X123613286Y-110272862D01*
X123535482Y-110322928D01*
X123483285Y-110399320D01*
X123464922Y-110490000D01*
X123464922Y-113461800D01*
X123443700Y-113461800D01*
X123317338Y-113486935D01*
X123210213Y-113558513D01*
X123138635Y-113665638D01*
X123113500Y-113792000D01*
X123113500Y-114815290D01*
X122996986Y-114863433D01*
X122861110Y-114999072D01*
X122787484Y-115176384D01*
X122787386Y-115288441D01*
X121160400Y-116915427D01*
X121160400Y-108651200D01*
X121135265Y-108524838D01*
X121063687Y-108417713D01*
X121063684Y-108417711D01*
X120018787Y-107372813D01*
X120018884Y-107261626D01*
X119945567Y-107084186D01*
X119809928Y-106948310D01*
X119632616Y-106874684D01*
X119440626Y-106874516D01*
X119263186Y-106947833D01*
X119127310Y-107083472D01*
X119116355Y-107109854D01*
X119046167Y-106939986D01*
X118910528Y-106804110D01*
X118733216Y-106730484D01*
X118541226Y-106730316D01*
X118363786Y-106803633D01*
X118227910Y-106939272D01*
X118159387Y-107104295D01*
X118091867Y-106940886D01*
X117956228Y-106805010D01*
X117778916Y-106731384D01*
X117586926Y-106731216D01*
X117409486Y-106804533D01*
X117273610Y-106940172D01*
X117199984Y-107117484D01*
X117199816Y-107309474D01*
X117273133Y-107486914D01*
X117352300Y-107566219D01*
X117352300Y-109314100D01*
X117377435Y-109440462D01*
X117449013Y-109547587D01*
X117926830Y-110025404D01*
X117888100Y-110017700D01*
X117213381Y-110017700D01*
X117134828Y-109939010D01*
X116957516Y-109865384D01*
X116765526Y-109865216D01*
X116588086Y-109938533D01*
X116508781Y-110017700D01*
X113817000Y-110017700D01*
X113690638Y-110042835D01*
X113583513Y-110114413D01*
X113583511Y-110114416D01*
X112618913Y-111079013D01*
X112547335Y-111186138D01*
X112522200Y-111312500D01*
X112522200Y-115344319D01*
X112443510Y-115422872D01*
X112369884Y-115600184D01*
X112369716Y-115792174D01*
X112434043Y-115947856D01*
X112425386Y-115951433D01*
X112289510Y-116087072D01*
X112215884Y-116264384D01*
X112215716Y-116456374D01*
X112266852Y-116580132D01*
X112210628Y-116523810D01*
X112033316Y-116450184D01*
X111921259Y-116450086D01*
X109029687Y-113558513D01*
X108922562Y-113486935D01*
X108796200Y-113461800D01*
X108183078Y-113461800D01*
X108183078Y-110490000D01*
X108167138Y-110405286D01*
X108117072Y-110327482D01*
X108040680Y-110275285D01*
X107950000Y-110256922D01*
X107010200Y-110256922D01*
X107010200Y-109067667D01*
X107029574Y-109067684D01*
X107207014Y-108994367D01*
X107342890Y-108858728D01*
X107416516Y-108681416D01*
X107416516Y-108680574D01*
X108991316Y-108680574D01*
X109064633Y-108858014D01*
X109200272Y-108993890D01*
X109377584Y-109067516D01*
X109569574Y-109067684D01*
X109747014Y-108994367D01*
X109882890Y-108858728D01*
X109956516Y-108681416D01*
X109956516Y-108680574D01*
X111531316Y-108680574D01*
X111604633Y-108858014D01*
X111740272Y-108993890D01*
X111917584Y-109067516D01*
X112109574Y-109067684D01*
X112287014Y-108994367D01*
X112422890Y-108858728D01*
X112496516Y-108681416D01*
X112496516Y-108680574D01*
X114071316Y-108680574D01*
X114144633Y-108858014D01*
X114280272Y-108993890D01*
X114457584Y-109067516D01*
X114649574Y-109067684D01*
X114827014Y-108994367D01*
X114962890Y-108858728D01*
X115036516Y-108681416D01*
X115036684Y-108489426D01*
X114963367Y-108311986D01*
X114827728Y-108176110D01*
X114650416Y-108102484D01*
X114458426Y-108102316D01*
X114280986Y-108175633D01*
X114145110Y-108311272D01*
X114071484Y-108488584D01*
X114071316Y-108680574D01*
X112496516Y-108680574D01*
X112496684Y-108489426D01*
X112423367Y-108311986D01*
X112287728Y-108176110D01*
X112110416Y-108102484D01*
X111918426Y-108102316D01*
X111740986Y-108175633D01*
X111605110Y-108311272D01*
X111531484Y-108488584D01*
X111531316Y-108680574D01*
X109956516Y-108680574D01*
X109956684Y-108489426D01*
X109883367Y-108311986D01*
X109747728Y-108176110D01*
X109570416Y-108102484D01*
X109378426Y-108102316D01*
X109200986Y-108175633D01*
X109065110Y-108311272D01*
X108991484Y-108488584D01*
X108991316Y-108680574D01*
X107416516Y-108680574D01*
X107416684Y-108489426D01*
X107343367Y-108311986D01*
X107207728Y-108176110D01*
X107030416Y-108102484D01*
X107010200Y-108102466D01*
X107010200Y-106629200D01*
X126669800Y-106629200D01*
X126669800Y-121589800D01*
G36*
X116001800Y-113614200D02*
X116021800Y-113614200D01*
X116021800Y-113969800D01*
X116001800Y-113969800D01*
X116001800Y-116770150D01*
X116147850Y-116916200D01*
X118186226Y-116916200D01*
X117983413Y-117119013D01*
X117943599Y-117178600D01*
X114896481Y-117178600D01*
X114817928Y-117099910D01*
X114640616Y-117026284D01*
X114448626Y-117026116D01*
X114271186Y-117099433D01*
X114135310Y-117235072D01*
X114061684Y-117412384D01*
X114061516Y-117604374D01*
X114134833Y-117781814D01*
X114270472Y-117917690D01*
X114447784Y-117991316D01*
X114639774Y-117991484D01*
X114817214Y-117918167D01*
X114896519Y-117839000D01*
X117886700Y-117839000D01*
X117886700Y-117853619D01*
X117808010Y-117932172D01*
X117734384Y-118109484D01*
X117734371Y-118123885D01*
X117637316Y-118083584D01*
X117445326Y-118083416D01*
X117267886Y-118156733D01*
X117188581Y-118235900D01*
X113856415Y-118235900D01*
X113840667Y-118197786D01*
X113705028Y-118061910D01*
X113527716Y-117988284D01*
X113335726Y-117988116D01*
X113158286Y-118061433D01*
X113028600Y-118190893D01*
X113028600Y-116858544D01*
X113167795Y-116916200D01*
X115500150Y-116916200D01*
X115646200Y-116770150D01*
X115646200Y-113969800D01*
X115626200Y-113969800D01*
X115626200Y-113614200D01*
X115646200Y-113614200D01*
X115646200Y-113594200D01*
X116001800Y-113594200D01*
X116001800Y-113614200D01*
X116001800Y-113614200D01*
G37*
X116001800Y-113614200D02*
X116021800Y-113614200D01*
X116021800Y-113969800D01*
X116001800Y-113969800D01*
X116001800Y-116770150D01*
X116147850Y-116916200D01*
X118186226Y-116916200D01*
X117983413Y-117119013D01*
X117943599Y-117178600D01*
X114896481Y-117178600D01*
X114817928Y-117099910D01*
X114640616Y-117026284D01*
X114448626Y-117026116D01*
X114271186Y-117099433D01*
X114135310Y-117235072D01*
X114061684Y-117412384D01*
X114061516Y-117604374D01*
X114134833Y-117781814D01*
X114270472Y-117917690D01*
X114447784Y-117991316D01*
X114639774Y-117991484D01*
X114817214Y-117918167D01*
X114896519Y-117839000D01*
X117886700Y-117839000D01*
X117886700Y-117853619D01*
X117808010Y-117932172D01*
X117734384Y-118109484D01*
X117734371Y-118123885D01*
X117637316Y-118083584D01*
X117445326Y-118083416D01*
X117267886Y-118156733D01*
X117188581Y-118235900D01*
X113856415Y-118235900D01*
X113840667Y-118197786D01*
X113705028Y-118061910D01*
X113527716Y-117988284D01*
X113335726Y-117988116D01*
X113158286Y-118061433D01*
X113028600Y-118190893D01*
X113028600Y-116858544D01*
X113167795Y-116916200D01*
X115500150Y-116916200D01*
X115646200Y-116770150D01*
X115646200Y-113969800D01*
X115626200Y-113969800D01*
X115626200Y-113614200D01*
X115646200Y-113614200D01*
X115646200Y-113594200D01*
X116001800Y-113594200D01*
X116001800Y-113614200D01*
M02*
