G04 #@! TF.FileFunction,Paste,Top*
%FSLAX46Y46*%
G04 Gerber Fmt 4.6, Leading zero omitted, Abs format (unit mm)*
G04 Created by KiCad (PCBNEW 4.0.7) date Monday, September 16, 2019 'PMt' 11:11:56 PM*
%MOMM*%
%LPD*%
G01*
G04 APERTURE LIST*
%ADD10C,0.100000*%
%ADD11R,0.750000X0.800000*%
%ADD12R,1.549908X0.999998*%
%ADD13R,1.000000X1.250000*%
%ADD14R,0.600000X1.400000*%
%ADD15R,0.402400X0.427400*%
%ADD16R,0.427400X0.402400*%
%ADD17R,1.599946X0.999998*%
%ADD18R,0.800000X0.800000*%
%ADD19R,0.900000X0.500000*%
%ADD20R,0.400000X0.400000*%
G04 APERTURE END LIST*
D10*
D11*
X117475000Y-120130000D03*
X117475000Y-118630000D03*
D12*
X122851037Y-120980200D03*
X128100963Y-120980200D03*
X122851037Y-117779800D03*
X128100963Y-117779800D03*
D13*
X122698000Y-115824000D03*
X124698000Y-115824000D03*
D14*
X121920000Y-113521000D03*
X121920000Y-108221000D03*
X120650000Y-113521000D03*
X120650000Y-108221000D03*
X119380000Y-113521000D03*
X119380000Y-108221000D03*
X118110000Y-113521000D03*
X118110000Y-108221000D03*
D15*
X119892000Y-118872500D03*
X120392000Y-118872500D03*
X120392000Y-117347500D03*
X119892000Y-117347500D03*
D16*
X120904500Y-117610000D03*
X119379500Y-117610000D03*
X120904500Y-118110000D03*
X119379500Y-118110000D03*
X120904500Y-118610000D03*
X119379500Y-118610000D03*
D17*
X128834997Y-109260005D03*
X126435003Y-109260005D03*
X128834997Y-111760000D03*
X126435003Y-111760000D03*
X128834997Y-114259995D03*
X126435003Y-114259995D03*
D18*
X124206000Y-111036000D03*
X124206000Y-109436000D03*
D19*
X124206000Y-114034000D03*
X124206000Y-112534000D03*
D20*
X110013000Y-114337000D03*
X110013000Y-117037000D03*
X115163000Y-118437000D03*
X115163000Y-117337000D03*
X115163000Y-116237000D03*
X115163000Y-115137000D03*
X115163000Y-114037000D03*
X115163000Y-112937000D03*
X116063000Y-112387000D03*
X116063000Y-113487000D03*
X116063000Y-114587000D03*
X116063000Y-115687000D03*
X116063000Y-116787000D03*
X116063000Y-117887000D03*
X116063000Y-118987000D03*
X114413000Y-112187000D03*
X113313000Y-112187000D03*
X112213000Y-112187000D03*
X111113000Y-112187000D03*
X110013000Y-112187000D03*
X108913000Y-112187000D03*
X107813000Y-112187000D03*
X107813000Y-119187000D03*
X108913000Y-119187000D03*
X110013000Y-119187000D03*
X111113000Y-119187000D03*
X112213000Y-119187000D03*
X113313000Y-119187000D03*
X114413000Y-119187000D03*
X116063000Y-120087000D03*
X116063000Y-111287000D03*
X114963000Y-120087000D03*
X114963000Y-111287000D03*
X113863000Y-120087000D03*
X113863000Y-111287000D03*
X112763000Y-120087000D03*
X112763000Y-111287000D03*
X111663000Y-120087000D03*
X111663000Y-111287000D03*
X110563000Y-120087000D03*
X110563000Y-111287000D03*
X109463000Y-120087000D03*
X109463000Y-111287000D03*
X108363000Y-120087000D03*
X108363000Y-111287000D03*
X107263000Y-120087000D03*
X107263000Y-111287000D03*
M02*
