G04 #@! TF.FileFunction,Legend,Bot*
%FSLAX46Y46*%
G04 Gerber Fmt 4.6, Leading zero omitted, Abs format (unit mm)*
G04 Created by KiCad (PCBNEW 4.0.7) date Monday, September 16, 2019 'PMt' 11:11:56 PM*
%MOMM*%
%LPD*%
G01*
G04 APERTURE LIST*
%ADD10C,0.100000*%
%ADD11C,0.190500*%
%ADD12C,0.222250*%
G04 APERTURE END LIST*
D10*
D11*
X131384524Y-107659715D02*
X130537857Y-107659715D01*
X130658810Y-107659715D02*
X130598333Y-107696000D01*
X130537857Y-107768572D01*
X130537857Y-107877429D01*
X130598333Y-107950000D01*
X130719286Y-107986286D01*
X131384524Y-107986286D01*
X130719286Y-107986286D02*
X130598333Y-108022572D01*
X130537857Y-108095143D01*
X130537857Y-108204000D01*
X130598333Y-108276572D01*
X130719286Y-108312857D01*
X131384524Y-108312857D01*
X131384524Y-108675715D02*
X130537857Y-108675715D01*
X130114524Y-108675715D02*
X130175000Y-108639429D01*
X130235476Y-108675715D01*
X130175000Y-108712000D01*
X130114524Y-108675715D01*
X130235476Y-108675715D01*
X130537857Y-109038572D02*
X131384524Y-109038572D01*
X130658810Y-109038572D02*
X130598333Y-109074857D01*
X130537857Y-109147429D01*
X130537857Y-109256286D01*
X130598333Y-109328857D01*
X130719286Y-109365143D01*
X131384524Y-109365143D01*
X131384524Y-109728001D02*
X130537857Y-109728001D01*
X130114524Y-109728001D02*
X130175000Y-109691715D01*
X130235476Y-109728001D01*
X130175000Y-109764286D01*
X130114524Y-109728001D01*
X130235476Y-109728001D01*
X131384524Y-110671429D02*
X130537857Y-110671429D01*
X130779762Y-110671429D02*
X130658810Y-110707714D01*
X130598333Y-110744000D01*
X130537857Y-110816571D01*
X130537857Y-110889143D01*
X131324048Y-111433428D02*
X131384524Y-111360857D01*
X131384524Y-111215714D01*
X131324048Y-111143143D01*
X131203095Y-111106857D01*
X130719286Y-111106857D01*
X130598333Y-111143143D01*
X130537857Y-111215714D01*
X130537857Y-111360857D01*
X130598333Y-111433428D01*
X130719286Y-111469714D01*
X130840238Y-111469714D01*
X130961190Y-111106857D01*
X130537857Y-111723714D02*
X131384524Y-111905143D01*
X130537857Y-112086571D01*
X130900714Y-112376857D02*
X130900714Y-112957428D01*
X130114524Y-113465428D02*
X130114524Y-113538000D01*
X130175000Y-113610571D01*
X130235476Y-113646857D01*
X130356429Y-113683143D01*
X130598333Y-113719428D01*
X130900714Y-113719428D01*
X131142619Y-113683143D01*
X131263571Y-113646857D01*
X131324048Y-113610571D01*
X131384524Y-113538000D01*
X131384524Y-113465428D01*
X131324048Y-113392857D01*
X131263571Y-113356571D01*
X131142619Y-113320286D01*
X130900714Y-113284000D01*
X130598333Y-113284000D01*
X130356429Y-113320286D01*
X130235476Y-113356571D01*
X130175000Y-113392857D01*
X130114524Y-113465428D01*
X131324048Y-114372571D02*
X131384524Y-114300000D01*
X131384524Y-114154857D01*
X131324048Y-114082285D01*
X131263571Y-114046000D01*
X131142619Y-114009714D01*
X130779762Y-114009714D01*
X130658810Y-114046000D01*
X130598333Y-114082285D01*
X130537857Y-114154857D01*
X130537857Y-114300000D01*
X130598333Y-114372571D01*
D12*
X103817057Y-107538157D02*
X103817057Y-107973586D01*
X104663724Y-107701443D02*
X103575152Y-107701443D01*
X103454200Y-107755871D01*
X103393724Y-107864729D01*
X103393724Y-107973586D01*
X104663724Y-108517872D02*
X104603248Y-108409014D01*
X104482295Y-108354586D01*
X103393724Y-108354586D01*
X104663724Y-108953300D02*
X103817057Y-108953300D01*
X103393724Y-108953300D02*
X103454200Y-108898871D01*
X103514676Y-108953300D01*
X103454200Y-109007728D01*
X103393724Y-108953300D01*
X103514676Y-108953300D01*
X103817057Y-109987443D02*
X104845152Y-109987443D01*
X104966105Y-109933014D01*
X105026581Y-109878586D01*
X105087057Y-109769729D01*
X105087057Y-109606443D01*
X105026581Y-109497586D01*
X104603248Y-109987443D02*
X104663724Y-109878586D01*
X104663724Y-109660872D01*
X104603248Y-109552014D01*
X104542771Y-109497586D01*
X104421819Y-109443157D01*
X104058962Y-109443157D01*
X103938010Y-109497586D01*
X103877533Y-109552014D01*
X103817057Y-109660872D01*
X103817057Y-109878586D01*
X103877533Y-109987443D01*
X104663724Y-110531729D02*
X103393724Y-110531729D01*
X104663724Y-111021586D02*
X103998486Y-111021586D01*
X103877533Y-110967157D01*
X103817057Y-110858300D01*
X103817057Y-110695015D01*
X103877533Y-110586157D01*
X103938010Y-110531729D01*
X103817057Y-111402586D02*
X103817057Y-111838015D01*
X103393724Y-111565872D02*
X104482295Y-111565872D01*
X104603248Y-111620300D01*
X104663724Y-111729158D01*
X104663724Y-111838015D01*
X104603248Y-112164586D02*
X104663724Y-112273443D01*
X104663724Y-112491158D01*
X104603248Y-112600015D01*
X104482295Y-112654443D01*
X104421819Y-112654443D01*
X104300867Y-112600015D01*
X104240390Y-112491158D01*
X104240390Y-112327872D01*
X104179914Y-112219015D01*
X104058962Y-112164586D01*
X103998486Y-112164586D01*
X103877533Y-112219015D01*
X103817057Y-112327872D01*
X103817057Y-112491158D01*
X103877533Y-112600015D01*
X104663724Y-113144301D02*
X103393724Y-113144301D01*
X104179914Y-113253158D02*
X104663724Y-113579729D01*
X103817057Y-113579729D02*
X104300867Y-113144301D01*
X104603248Y-114505015D02*
X104663724Y-114396158D01*
X104663724Y-114178444D01*
X104603248Y-114069587D01*
X104482295Y-114015158D01*
X103998486Y-114015158D01*
X103877533Y-114069587D01*
X103817057Y-114178444D01*
X103817057Y-114396158D01*
X103877533Y-114505015D01*
X103998486Y-114559444D01*
X104119438Y-114559444D01*
X104240390Y-114015158D01*
X103817057Y-114886015D02*
X103817057Y-115321444D01*
X103393724Y-115049301D02*
X104482295Y-115049301D01*
X104603248Y-115103729D01*
X104663724Y-115212587D01*
X104663724Y-115321444D01*
X104603248Y-116192301D02*
X104663724Y-116083444D01*
X104663724Y-115865730D01*
X104603248Y-115756872D01*
X104542771Y-115702444D01*
X104421819Y-115648015D01*
X104058962Y-115648015D01*
X103938010Y-115702444D01*
X103877533Y-115756872D01*
X103817057Y-115865730D01*
X103817057Y-116083444D01*
X103877533Y-116192301D01*
X104663724Y-116682158D02*
X103393724Y-116682158D01*
X104663724Y-117172015D02*
X103998486Y-117172015D01*
X103877533Y-117117586D01*
X103817057Y-117008729D01*
X103817057Y-116845444D01*
X103877533Y-116736586D01*
X103938010Y-116682158D01*
X104542771Y-117716301D02*
X104603248Y-117770729D01*
X104663724Y-117716301D01*
X104603248Y-117661872D01*
X104542771Y-117716301D01*
X104663724Y-117716301D01*
X104603248Y-118750444D02*
X104663724Y-118641587D01*
X104663724Y-118423873D01*
X104603248Y-118315015D01*
X104542771Y-118260587D01*
X104421819Y-118206158D01*
X104058962Y-118206158D01*
X103938010Y-118260587D01*
X103877533Y-118315015D01*
X103817057Y-118423873D01*
X103817057Y-118641587D01*
X103877533Y-118750444D01*
X104663724Y-119403587D02*
X104603248Y-119294729D01*
X104542771Y-119240301D01*
X104421819Y-119185872D01*
X104058962Y-119185872D01*
X103938010Y-119240301D01*
X103877533Y-119294729D01*
X103817057Y-119403587D01*
X103817057Y-119566872D01*
X103877533Y-119675729D01*
X103938010Y-119730158D01*
X104058962Y-119784587D01*
X104421819Y-119784587D01*
X104542771Y-119730158D01*
X104603248Y-119675729D01*
X104663724Y-119566872D01*
X104663724Y-119403587D01*
X104663724Y-120274444D02*
X103817057Y-120274444D01*
X103938010Y-120274444D02*
X103877533Y-120328872D01*
X103817057Y-120437730D01*
X103817057Y-120601015D01*
X103877533Y-120709872D01*
X103998486Y-120764301D01*
X104663724Y-120764301D01*
X103998486Y-120764301D02*
X103877533Y-120818730D01*
X103817057Y-120927587D01*
X103817057Y-121090872D01*
X103877533Y-121199730D01*
X103998486Y-121254158D01*
X104663724Y-121254158D01*
M02*
