G04 #@! TF.FileFunction,Legend,Top*
%FSLAX46Y46*%
G04 Gerber Fmt 4.6, Leading zero omitted, Abs format (unit mm)*
G04 Created by KiCad (PCBNEW 4.0.7) date Monday, October 21, 2019 'PMt' 07:48:59 PM*
%MOMM*%
%LPD*%
G01*
G04 APERTURE LIST*
%ADD10C,0.100000*%
%ADD11C,0.120000*%
%ADD12C,0.150000*%
%ADD13C,0.110000*%
%ADD14C,0.050000*%
G04 APERTURE END LIST*
D10*
D11*
X118520000Y-115538000D02*
X118520000Y-116238000D01*
X117320000Y-116238000D02*
X117320000Y-115538000D01*
X125564000Y-117150000D02*
X125564000Y-116150000D01*
X123864000Y-116150000D02*
X123864000Y-117150000D01*
D12*
X104187500Y-107378500D02*
X103187500Y-108378500D01*
X103187500Y-108378500D02*
X103187500Y-109791500D01*
X103187500Y-109791500D02*
X115760500Y-109791500D01*
X115760500Y-109791500D02*
X115760500Y-107378500D01*
X115760500Y-107378500D02*
X104187500Y-107378500D01*
X120412000Y-115205000D02*
X122412000Y-115205000D01*
X122412000Y-115205000D02*
X122412000Y-117205000D01*
X122412000Y-117205000D02*
X120412000Y-117205000D01*
X120412000Y-117205000D02*
X120412000Y-115205000D01*
D11*
X121277000Y-107666000D02*
X120277000Y-107666000D01*
X120277000Y-107666000D02*
X120277000Y-109766000D01*
X121277000Y-107666000D02*
X121277000Y-109766000D01*
X121457000Y-111260000D02*
X121457000Y-112260000D01*
X120097000Y-112260000D02*
X120097000Y-111260000D01*
D10*
X116713000Y-120840000D02*
X116713000Y-110640000D01*
X101713000Y-110640000D02*
X116713000Y-110640000D01*
X101713000Y-120840000D02*
X101713000Y-110640000D01*
X116713000Y-120840000D02*
X101713000Y-120840000D01*
X119174000Y-110530000D02*
X119174000Y-107530000D01*
X119174000Y-107530000D02*
X117174000Y-107530000D01*
X117174000Y-107530000D02*
X117174000Y-110530000D01*
X117174000Y-110530000D02*
X119174000Y-110530000D01*
X119634000Y-118092786D02*
X118219786Y-119507000D01*
X118219786Y-119507000D02*
X119634000Y-120921214D01*
X119634000Y-120921214D02*
X121048214Y-119507000D01*
D13*
X121048214Y-119507000D02*
X119634000Y-118092786D01*
D11*
X117320000Y-112872000D02*
X117320000Y-112172000D01*
X118520000Y-112172000D02*
X118520000Y-112872000D01*
D14*
X122792000Y-113356000D02*
X122792000Y-114356000D01*
X122792000Y-114356000D02*
X122192000Y-114356000D01*
X122192000Y-114356000D02*
X122192000Y-113356000D01*
X122192000Y-113356000D02*
X122792000Y-113356000D01*
D11*
X125150000Y-114536000D02*
X124150000Y-114536000D01*
X124150000Y-113176000D02*
X125150000Y-113176000D01*
X125756000Y-109222000D02*
X126406000Y-109222000D01*
X126406000Y-109222000D02*
X126406000Y-111122000D01*
X126406000Y-111122000D02*
X125756000Y-111122000D01*
X122656000Y-111922000D02*
X122656000Y-108422000D01*
X125756000Y-108422000D02*
X125756000Y-111922000D01*
M02*
