M48
;DRILL file {KiCad 4.0.7} date Monday, October 21, 2019 'PMt' 07:49:27 PM
;FORMAT={-:-/ absolute / inch / decimal}
FMAT,2
INCH,TZ
T1C0.010
%
G90
G05
M72
T1
X4.11Y-4.275
X4.21Y-4.275
X4.275Y-4.645
X4.31Y-4.275
X4.365Y-4.465
X4.3798Y-4.6058
X4.407Y-4.6036
X4.41Y-4.275
X4.4369Y-4.5811
X4.443Y-4.555
X4.4647Y-4.6343
X4.4658Y-4.6642
X4.5096Y-4.6263
X4.51Y-4.275
X4.6008Y-4.3444
X4.6276Y-4.668
X4.6332Y-4.221
X4.6542Y-4.6538
X4.6707Y-4.221
X4.6761Y-4.5464
X4.6901Y-4.5693
X4.6939Y-4.3645
X4.694Y-4.6093
X4.7061Y-4.2267
X4.7082Y-4.5218
X4.7222Y-4.4922
X4.7281Y-4.6078
X4.8531Y-4.5383
X4.926Y-4.6695
T0
M30
