G04 #@! TF.FileFunction,Paste,Top*
%FSLAX46Y46*%
G04 Gerber Fmt 4.6, Leading zero omitted, Abs format (unit mm)*
G04 Created by KiCad (PCBNEW 4.0.7) date Monday, October 21, 2019 'PMt' 10:32:48 PM*
%MOMM*%
%LPD*%
G01*
G04 APERTURE LIST*
%ADD10C,0.100000*%
%ADD11R,0.596000X0.546000*%
%ADD12R,0.650000X0.300000*%
%ADD13R,0.300000X0.650000*%
%ADD14R,0.446000X0.446000*%
%ADD15R,0.800000X0.750000*%
%ADD16R,1.549908X0.999998*%
%ADD17R,1.000000X1.250000*%
%ADD18R,0.800000X0.800000*%
%ADD19R,0.900000X0.500000*%
%ADD20R,0.800000X0.900000*%
%ADD21R,0.700000X1.500000*%
%ADD22R,1.500000X1.000000*%
%ADD23R,1.500000X0.700000*%
%ADD24R,0.500000X0.900000*%
%ADD25R,0.250000X0.350000*%
%ADD26R,1.600000X0.200000*%
G04 APERTURE END LIST*
D10*
D11*
X116111000Y-117003000D03*
X116111000Y-117903000D03*
X116111000Y-118803000D03*
X117061000Y-118803000D03*
X117061000Y-117903000D03*
X117061000Y-117003000D03*
X117061000Y-113353000D03*
X117061000Y-114253000D03*
X117061000Y-115153000D03*
X116111000Y-115153000D03*
X116111000Y-114253000D03*
X116111000Y-113353000D03*
X113566000Y-113353000D03*
X113566000Y-114253000D03*
X113566000Y-115153000D03*
X114516000Y-115153000D03*
X114516000Y-114253000D03*
X114516000Y-113353000D03*
X114516000Y-117003000D03*
X114516000Y-117903000D03*
X114516000Y-118803000D03*
X113566000Y-118803000D03*
X113566000Y-117903000D03*
D12*
X102211000Y-112878000D03*
X102211000Y-113678000D03*
X102211000Y-114478000D03*
X102211000Y-116878000D03*
X102211000Y-116078000D03*
X102211000Y-115278000D03*
X102211000Y-117678000D03*
X102211000Y-118478000D03*
X102211000Y-119278000D03*
D13*
X110416000Y-120503000D03*
X109616000Y-120503000D03*
X108816000Y-120503000D03*
X106416000Y-120503000D03*
X107216000Y-120503000D03*
X108016000Y-120503000D03*
X105616000Y-120503000D03*
X104816000Y-120503000D03*
X104016000Y-120503000D03*
D14*
X102241000Y-120478000D03*
X102241000Y-111678000D03*
D13*
X104016000Y-111653000D03*
X104816000Y-111653000D03*
X105616000Y-111653000D03*
X108016000Y-111653000D03*
X107216000Y-111653000D03*
X106416000Y-111653000D03*
X108816000Y-111653000D03*
X109616000Y-111653000D03*
X110416000Y-111653000D03*
D14*
X112191000Y-111678000D03*
X112191000Y-120478000D03*
X118441000Y-120478000D03*
D13*
X117591000Y-120503000D03*
X116941000Y-120503000D03*
X116291000Y-120503000D03*
X115641000Y-120503000D03*
X114991000Y-120503000D03*
X114341000Y-120503000D03*
X113691000Y-120503000D03*
X113041000Y-120503000D03*
X113041000Y-111653000D03*
X113691000Y-111653000D03*
X114341000Y-111653000D03*
X114991000Y-111653000D03*
X115641000Y-111653000D03*
X116291000Y-111653000D03*
X116941000Y-111653000D03*
X117591000Y-111653000D03*
D12*
X112166000Y-119653000D03*
X118466000Y-119653000D03*
X112166000Y-119003000D03*
X118466000Y-119003000D03*
X112166000Y-118353000D03*
X118466000Y-118353000D03*
X112166000Y-117703000D03*
X118466000Y-117703000D03*
X112166000Y-117053000D03*
X118466000Y-117053000D03*
X112166000Y-116403000D03*
X118466000Y-116403000D03*
X112166000Y-115753000D03*
X118466000Y-115753000D03*
X112166000Y-115103000D03*
X118466000Y-115103000D03*
X112166000Y-114453000D03*
X118466000Y-114453000D03*
X112166000Y-113803000D03*
X118466000Y-113803000D03*
X112166000Y-113153000D03*
X118466000Y-113153000D03*
X112166000Y-112503000D03*
X118466000Y-112503000D03*
D14*
X118441000Y-111678000D03*
D11*
X113566000Y-117003000D03*
D15*
X122797000Y-111887000D03*
X121297000Y-111887000D03*
D16*
X140250037Y-111455200D03*
X145499963Y-111455200D03*
X140250037Y-108254800D03*
X145499963Y-108254800D03*
D17*
X149082000Y-120269000D03*
X147082000Y-120269000D03*
D18*
X140335000Y-117005000D03*
X140335000Y-115405000D03*
D19*
X140335000Y-120257000D03*
X140335000Y-118757000D03*
D17*
X142510000Y-115570000D03*
X144510000Y-115570000D03*
D20*
X144333000Y-118126000D03*
X142433000Y-118126000D03*
X143383000Y-120126000D03*
D21*
X128048000Y-120327000D03*
X129048000Y-120327000D03*
X130048000Y-120327000D03*
X131048000Y-120327000D03*
X132048000Y-120327000D03*
D22*
X125648000Y-107777000D03*
D23*
X125648000Y-119927000D03*
X134448000Y-119927000D03*
X125648000Y-118927000D03*
X134448000Y-118927000D03*
X125648000Y-117927000D03*
X134448000Y-117927000D03*
X125648000Y-116927000D03*
X134448000Y-116927000D03*
X125648000Y-115927000D03*
X134448000Y-115927000D03*
X125648000Y-114927000D03*
X134448000Y-114927000D03*
X125648000Y-113927000D03*
X134448000Y-113927000D03*
X125648000Y-112927000D03*
X134448000Y-112927000D03*
X125648000Y-111927000D03*
X134448000Y-111927000D03*
X125648000Y-110927000D03*
X134448000Y-110927000D03*
X125648000Y-109927000D03*
X134448000Y-109927000D03*
X125648000Y-108927000D03*
X134448000Y-108927000D03*
D22*
X134448000Y-107777000D03*
D24*
X144260000Y-113538000D03*
X142760000Y-113538000D03*
X141212000Y-113538000D03*
X139712000Y-113538000D03*
D25*
X121297000Y-113837000D03*
X121297000Y-116287000D03*
X121797000Y-113837000D03*
X121797000Y-116287000D03*
X122297000Y-113837000D03*
X122297000Y-116287000D03*
X122797000Y-113837000D03*
X122797000Y-116287000D03*
D26*
X122047000Y-115062000D03*
M02*
