G04 #@! TF.FileFunction,Paste,Top*
%FSLAX46Y46*%
G04 Gerber Fmt 4.6, Leading zero omitted, Abs format (unit mm)*
G04 Created by KiCad (PCBNEW 4.0.7) date Thursday, August 29, 2019 'PMt' 09:24:48 PM*
%MOMM*%
%LPD*%
G01*
G04 APERTURE LIST*
%ADD10C,0.100000*%
%ADD11C,0.025400*%
%ADD12R,1.200000X0.500000*%
%ADD13R,0.500000X1.200000*%
%ADD14R,0.750000X0.800000*%
%ADD15R,0.999998X1.549908*%
%ADD16R,1.000000X1.250000*%
%ADD17R,0.600000X1.400000*%
%ADD18R,0.351600X0.376600*%
%ADD19R,0.376600X0.351600*%
%ADD20R,0.800000X0.800000*%
%ADD21R,0.900000X0.500000*%
%ADD22R,1.250000X1.000000*%
%ADD23R,0.900000X0.800000*%
%ADD24R,0.551600X0.401600*%
%ADD25R,1.101600X1.701600*%
%ADD26R,0.500000X0.900000*%
%ADD27R,0.300000X0.750000*%
%ADD28R,0.435000X0.525000*%
G04 APERTURE END LIST*
D10*
D11*
X101600000Y-106680000D02*
X101600000Y-121920000D01*
X152400000Y-106680000D02*
X101600000Y-106680000D01*
X152400000Y-121920000D02*
X152400000Y-106680000D01*
X101600000Y-121920000D02*
X152400000Y-121920000D01*
D12*
X115500000Y-111693000D03*
X115500000Y-112443000D03*
X115500000Y-113193000D03*
X115500000Y-113943000D03*
X115500000Y-114693000D03*
X115500000Y-115443000D03*
X115500000Y-116193000D03*
X115500000Y-116943000D03*
X115500000Y-117693000D03*
X115500000Y-118443000D03*
X115500000Y-119193000D03*
D13*
X115050000Y-120343000D03*
X114300000Y-120343000D03*
X113550000Y-120343000D03*
X112800000Y-120343000D03*
X112050000Y-120343000D03*
X111300000Y-120343000D03*
X110550000Y-120343000D03*
X109800000Y-120343000D03*
X109050000Y-120343000D03*
X108300000Y-120343000D03*
X107550000Y-120343000D03*
X106800000Y-120343000D03*
X103800000Y-110543000D03*
X104550000Y-110543000D03*
X105300000Y-110543000D03*
X106050000Y-110543000D03*
X106800000Y-110543000D03*
X107550000Y-110543000D03*
X108300000Y-110543000D03*
X109050000Y-110543000D03*
X109800000Y-110543000D03*
X110550000Y-110543000D03*
X111300000Y-110543000D03*
X112050000Y-110543000D03*
X112800000Y-110543000D03*
X113550000Y-110543000D03*
X114300000Y-110543000D03*
X115050000Y-110543000D03*
D14*
X117094000Y-120638000D03*
X117094000Y-119138000D03*
D15*
X138506200Y-116670963D03*
X138506200Y-111421037D03*
X135305800Y-116670963D03*
X135305800Y-111421037D03*
D16*
X131226000Y-116789000D03*
X129226000Y-116789000D03*
D17*
X124206000Y-108119000D03*
X124206000Y-113419000D03*
X125476000Y-108119000D03*
X125476000Y-113419000D03*
X126746000Y-108119000D03*
X126746000Y-113419000D03*
X128016000Y-108119000D03*
X128016000Y-113419000D03*
D18*
X123753000Y-120447500D03*
X124253000Y-120447500D03*
X124253000Y-118922500D03*
X123753000Y-118922500D03*
D19*
X124765500Y-119185000D03*
X123240500Y-119185000D03*
X124765500Y-119685000D03*
X123240500Y-119685000D03*
X124765500Y-120185000D03*
X123240500Y-120185000D03*
D20*
X129997000Y-112967000D03*
X129997000Y-114567000D03*
D21*
X130073000Y-107276000D03*
X130073000Y-108776000D03*
D22*
X127406000Y-120558000D03*
X127406000Y-118558000D03*
D23*
X129226000Y-118633000D03*
X129226000Y-120533000D03*
X131226000Y-119583000D03*
D24*
X137201000Y-109362000D03*
X139151000Y-109362000D03*
X137201000Y-108712000D03*
X139151000Y-108712000D03*
X137201000Y-108062000D03*
X139151000Y-108062000D03*
D25*
X138176000Y-108712000D03*
D24*
X137074000Y-119725000D03*
X139024000Y-119725000D03*
X137074000Y-119075000D03*
X139024000Y-119075000D03*
X137074000Y-118425000D03*
X139024000Y-118425000D03*
D25*
X138049000Y-119075000D03*
D10*
G36*
X120557941Y-108631441D02*
X120965659Y-108223723D01*
X121214277Y-108472341D01*
X120806559Y-108880059D01*
X120557941Y-108631441D01*
X120557941Y-108631441D01*
G37*
G36*
X117849723Y-111339659D02*
X118257441Y-110931941D01*
X118506059Y-111180559D01*
X118098341Y-111588277D01*
X117849723Y-111339659D01*
X117849723Y-111339659D01*
G37*
G36*
X121336890Y-109340951D02*
X121744608Y-109748669D01*
X121495990Y-109997287D01*
X121088272Y-109589569D01*
X121336890Y-109340951D01*
X121336890Y-109340951D01*
G37*
G36*
X119689331Y-107693392D02*
X120097049Y-108101110D01*
X119848431Y-108349728D01*
X119440713Y-107942010D01*
X119689331Y-107693392D01*
X119689331Y-107693392D01*
G37*
G36*
X120983336Y-109694505D02*
X121391054Y-110102223D01*
X121142436Y-110350841D01*
X120734718Y-109943123D01*
X120983336Y-109694505D01*
X120983336Y-109694505D01*
G37*
G36*
X119335777Y-108046946D02*
X119743495Y-108454664D01*
X119494877Y-108703282D01*
X119087159Y-108295564D01*
X119335777Y-108046946D01*
X119335777Y-108046946D01*
G37*
G36*
X120629783Y-110048058D02*
X121037501Y-110455776D01*
X120788883Y-110704394D01*
X120381165Y-110296676D01*
X120629783Y-110048058D01*
X120629783Y-110048058D01*
G37*
G36*
X118982224Y-108400499D02*
X119389942Y-108808217D01*
X119141324Y-109056835D01*
X118733606Y-108649117D01*
X118982224Y-108400499D01*
X118982224Y-108400499D01*
G37*
G36*
X120276229Y-110401611D02*
X120683947Y-110809329D01*
X120435329Y-111057947D01*
X120027611Y-110650229D01*
X120276229Y-110401611D01*
X120276229Y-110401611D01*
G37*
G36*
X118628671Y-108754053D02*
X119036389Y-109161771D01*
X118787771Y-109410389D01*
X118380053Y-109002671D01*
X118628671Y-108754053D01*
X118628671Y-108754053D01*
G37*
G36*
X119922676Y-110755165D02*
X120330394Y-111162883D01*
X120081776Y-111411501D01*
X119674058Y-111003783D01*
X119922676Y-110755165D01*
X119922676Y-110755165D01*
G37*
G36*
X118275117Y-109107606D02*
X118682835Y-109515324D01*
X118434217Y-109763942D01*
X118026499Y-109356224D01*
X118275117Y-109107606D01*
X118275117Y-109107606D01*
G37*
G36*
X119569123Y-111108718D02*
X119976841Y-111516436D01*
X119728223Y-111765054D01*
X119320505Y-111357336D01*
X119569123Y-111108718D01*
X119569123Y-111108718D01*
G37*
G36*
X117921564Y-109461159D02*
X118329282Y-109868877D01*
X118080664Y-110117495D01*
X117672946Y-109709777D01*
X117921564Y-109461159D01*
X117921564Y-109461159D01*
G37*
G36*
X119215569Y-111462272D02*
X119623287Y-111869990D01*
X119374669Y-112118608D01*
X118966951Y-111710890D01*
X119215569Y-111462272D01*
X119215569Y-111462272D01*
G37*
G36*
X117568010Y-109814713D02*
X117975728Y-110222431D01*
X117727110Y-110471049D01*
X117319392Y-110063331D01*
X117568010Y-109814713D01*
X117568010Y-109814713D01*
G37*
D21*
X133604000Y-118579000D03*
X133604000Y-120079000D03*
X133579000Y-115480000D03*
X133579000Y-116980000D03*
D26*
X132194000Y-107442000D03*
X133694000Y-107442000D03*
X132194000Y-108890000D03*
X133694000Y-108890000D03*
X147511000Y-118059000D03*
X146011000Y-118059000D03*
D21*
X135407000Y-107759000D03*
X135407000Y-109259000D03*
X135433000Y-118528000D03*
X135433000Y-120028000D03*
D27*
X131660000Y-113743000D03*
X132160000Y-113743000D03*
X132660000Y-113743000D03*
X133160000Y-113743000D03*
X133160000Y-110843000D03*
X132660000Y-110843000D03*
X132160000Y-110843000D03*
X131660000Y-110843000D03*
D28*
X132772500Y-111855500D03*
X132047500Y-111855500D03*
X132772500Y-112730500D03*
X132047500Y-112730500D03*
D26*
X145935000Y-107620000D03*
X147435000Y-107620000D03*
D21*
X146329000Y-109156000D03*
X146329000Y-110656000D03*
X146609000Y-121044000D03*
X146609000Y-119544000D03*
D14*
X127355600Y-117005800D03*
X127355600Y-115505800D03*
M02*
