G04 #@! TF.FileFunction,Soldermask,Top*
%FSLAX46Y46*%
G04 Gerber Fmt 4.6, Leading zero omitted, Abs format (unit mm)*
G04 Created by KiCad (PCBNEW 4.0.7) date Monday, September 16, 2019 'PMt' 11:11:56 PM*
%MOMM*%
%LPD*%
G01*
G04 APERTURE LIST*
%ADD10C,0.100000*%
G04 APERTURE END LIST*
D10*
G36*
X128926717Y-121530999D02*
X127275209Y-121530999D01*
X127275209Y-120429401D01*
X128926717Y-120429401D01*
X128926717Y-121530999D01*
X128926717Y-121530999D01*
G37*
G36*
X123676791Y-121530999D02*
X122025283Y-121530999D01*
X122025283Y-120429401D01*
X123676791Y-120429401D01*
X123676791Y-121530999D01*
X123676791Y-121530999D01*
G37*
G36*
X130503728Y-117117227D02*
X130503731Y-117117228D01*
X130503741Y-117117229D01*
X130690794Y-117175132D01*
X130863038Y-117268264D01*
X131013912Y-117393077D01*
X131137670Y-117544819D01*
X131229597Y-117717709D01*
X131286192Y-117905162D01*
X131305300Y-118100037D01*
X131305300Y-120023963D01*
X131305202Y-120037971D01*
X131283375Y-120232561D01*
X131224168Y-120419205D01*
X131129836Y-120590794D01*
X131003972Y-120740793D01*
X130851370Y-120863489D01*
X130677843Y-120954207D01*
X130490000Y-121009492D01*
X130489995Y-121009492D01*
X130489990Y-121009494D01*
X130334055Y-121023684D01*
X130294996Y-121027239D01*
X130294993Y-121027239D01*
X130100272Y-121006773D01*
X130100269Y-121006772D01*
X130100259Y-121006771D01*
X129913206Y-120948868D01*
X129740962Y-120855736D01*
X129590088Y-120730923D01*
X129466330Y-120579181D01*
X129374403Y-120406291D01*
X129317808Y-120218838D01*
X129298700Y-120023963D01*
X129298700Y-118100037D01*
X129298798Y-118086029D01*
X129320625Y-117891439D01*
X129379832Y-117704795D01*
X129474164Y-117533206D01*
X129600028Y-117383207D01*
X129752630Y-117260511D01*
X129926157Y-117169793D01*
X130114000Y-117114508D01*
X130114005Y-117114508D01*
X130114010Y-117114506D01*
X130269945Y-117100316D01*
X130309005Y-117096761D01*
X130309007Y-117096761D01*
X130503728Y-117117227D01*
X130503728Y-117117227D01*
G37*
G36*
X117900800Y-120580800D02*
X117049200Y-120580800D01*
X117049200Y-119679200D01*
X117900800Y-119679200D01*
X117900800Y-120580800D01*
X117900800Y-120580800D01*
G37*
G36*
X116313800Y-120337800D02*
X115812200Y-120337800D01*
X115812200Y-119836200D01*
X116313800Y-119836200D01*
X116313800Y-120337800D01*
X116313800Y-120337800D01*
G37*
G36*
X115213800Y-120337800D02*
X114712200Y-120337800D01*
X114712200Y-119836200D01*
X115213800Y-119836200D01*
X115213800Y-120337800D01*
X115213800Y-120337800D01*
G37*
G36*
X114113800Y-120337800D02*
X113612200Y-120337800D01*
X113612200Y-119836200D01*
X114113800Y-119836200D01*
X114113800Y-120337800D01*
X114113800Y-120337800D01*
G37*
G36*
X113013800Y-120337800D02*
X112512200Y-120337800D01*
X112512200Y-119836200D01*
X113013800Y-119836200D01*
X113013800Y-120337800D01*
X113013800Y-120337800D01*
G37*
G36*
X111913800Y-120337800D02*
X111412200Y-120337800D01*
X111412200Y-119836200D01*
X111913800Y-119836200D01*
X111913800Y-120337800D01*
X111913800Y-120337800D01*
G37*
G36*
X110813800Y-120337800D02*
X110312200Y-120337800D01*
X110312200Y-119836200D01*
X110813800Y-119836200D01*
X110813800Y-120337800D01*
X110813800Y-120337800D01*
G37*
G36*
X109713800Y-120337800D02*
X109212200Y-120337800D01*
X109212200Y-119836200D01*
X109713800Y-119836200D01*
X109713800Y-120337800D01*
X109713800Y-120337800D01*
G37*
G36*
X108613800Y-120337800D02*
X108112200Y-120337800D01*
X108112200Y-119836200D01*
X108613800Y-119836200D01*
X108613800Y-120337800D01*
X108613800Y-120337800D01*
G37*
G36*
X107513800Y-120337800D02*
X107012200Y-120337800D01*
X107012200Y-119836200D01*
X107513800Y-119836200D01*
X107513800Y-120337800D01*
X107513800Y-120337800D01*
G37*
G36*
X110263800Y-119437800D02*
X109762200Y-119437800D01*
X109762200Y-118936200D01*
X110263800Y-118936200D01*
X110263800Y-119437800D01*
X110263800Y-119437800D01*
G37*
G36*
X111363800Y-119437800D02*
X110862200Y-119437800D01*
X110862200Y-118936200D01*
X111363800Y-118936200D01*
X111363800Y-119437800D01*
X111363800Y-119437800D01*
G37*
G36*
X112463800Y-119437800D02*
X111962200Y-119437800D01*
X111962200Y-118936200D01*
X112463800Y-118936200D01*
X112463800Y-119437800D01*
X112463800Y-119437800D01*
G37*
G36*
X108063800Y-119437800D02*
X107562200Y-119437800D01*
X107562200Y-118936200D01*
X108063800Y-118936200D01*
X108063800Y-119437800D01*
X108063800Y-119437800D01*
G37*
G36*
X109163800Y-119437800D02*
X108662200Y-119437800D01*
X108662200Y-118936200D01*
X109163800Y-118936200D01*
X109163800Y-119437800D01*
X109163800Y-119437800D01*
G37*
G36*
X113563800Y-119437800D02*
X113062200Y-119437800D01*
X113062200Y-118936200D01*
X113563800Y-118936200D01*
X113563800Y-119437800D01*
X113563800Y-119437800D01*
G37*
G36*
X114663800Y-119437800D02*
X114162200Y-119437800D01*
X114162200Y-118936200D01*
X114663800Y-118936200D01*
X114663800Y-119437800D01*
X114663800Y-119437800D01*
G37*
G36*
X116313800Y-119237800D02*
X115812200Y-119237800D01*
X115812200Y-118736200D01*
X116313800Y-118736200D01*
X116313800Y-119237800D01*
X116313800Y-119237800D01*
G37*
G36*
X117900800Y-119080800D02*
X117049200Y-119080800D01*
X117049200Y-118179200D01*
X117900800Y-118179200D01*
X117900800Y-119080800D01*
X117900800Y-119080800D01*
G37*
G36*
X120067800Y-119060800D02*
X119716200Y-119060800D01*
X119716200Y-118684200D01*
X120067800Y-118684200D01*
X120067800Y-119060800D01*
X120067800Y-119060800D01*
G37*
G36*
X120567800Y-119060800D02*
X120216200Y-119060800D01*
X120216200Y-118684200D01*
X120567800Y-118684200D01*
X120567800Y-119060800D01*
X120567800Y-119060800D01*
G37*
G36*
X119567800Y-118785800D02*
X119191200Y-118785800D01*
X119191200Y-118434200D01*
X119567800Y-118434200D01*
X119567800Y-118785800D01*
X119567800Y-118785800D01*
G37*
G36*
X121092800Y-118785800D02*
X120716200Y-118785800D01*
X120716200Y-118434200D01*
X121092800Y-118434200D01*
X121092800Y-118785800D01*
X121092800Y-118785800D01*
G37*
G36*
X115413800Y-118687800D02*
X114912200Y-118687800D01*
X114912200Y-118186200D01*
X115413800Y-118186200D01*
X115413800Y-118687800D01*
X115413800Y-118687800D01*
G37*
G36*
X123676791Y-118330599D02*
X122025283Y-118330599D01*
X122025283Y-117229001D01*
X123676791Y-117229001D01*
X123676791Y-118330599D01*
X123676791Y-118330599D01*
G37*
G36*
X128926717Y-118330599D02*
X127275209Y-118330599D01*
X127275209Y-117229001D01*
X128926717Y-117229001D01*
X128926717Y-118330599D01*
X128926717Y-118330599D01*
G37*
G36*
X119567800Y-118285800D02*
X119191200Y-118285800D01*
X119191200Y-117934200D01*
X119567800Y-117934200D01*
X119567800Y-118285800D01*
X119567800Y-118285800D01*
G37*
G36*
X121092800Y-118285800D02*
X120716200Y-118285800D01*
X120716200Y-117934200D01*
X121092800Y-117934200D01*
X121092800Y-118285800D01*
X121092800Y-118285800D01*
G37*
G36*
X116313800Y-118137800D02*
X115812200Y-118137800D01*
X115812200Y-117636200D01*
X116313800Y-117636200D01*
X116313800Y-118137800D01*
X116313800Y-118137800D01*
G37*
G36*
X119567800Y-117785800D02*
X119191200Y-117785800D01*
X119191200Y-117434200D01*
X119567800Y-117434200D01*
X119567800Y-117785800D01*
X119567800Y-117785800D01*
G37*
G36*
X121092800Y-117785800D02*
X120716200Y-117785800D01*
X120716200Y-117434200D01*
X121092800Y-117434200D01*
X121092800Y-117785800D01*
X121092800Y-117785800D01*
G37*
G36*
X115413800Y-117587800D02*
X114912200Y-117587800D01*
X114912200Y-117086200D01*
X115413800Y-117086200D01*
X115413800Y-117587800D01*
X115413800Y-117587800D01*
G37*
G36*
X120567800Y-117535800D02*
X120216200Y-117535800D01*
X120216200Y-117159200D01*
X120567800Y-117159200D01*
X120567800Y-117535800D01*
X120567800Y-117535800D01*
G37*
G36*
X120067800Y-117535800D02*
X119716200Y-117535800D01*
X119716200Y-117159200D01*
X120067800Y-117159200D01*
X120067800Y-117535800D01*
X120067800Y-117535800D01*
G37*
G36*
X110263800Y-117287800D02*
X109762200Y-117287800D01*
X109762200Y-116786200D01*
X110263800Y-116786200D01*
X110263800Y-117287800D01*
X110263800Y-117287800D01*
G37*
G36*
X116313800Y-117037800D02*
X115812200Y-117037800D01*
X115812200Y-116536200D01*
X116313800Y-116536200D01*
X116313800Y-117037800D01*
X116313800Y-117037800D01*
G37*
G36*
X125248800Y-116499800D02*
X124147200Y-116499800D01*
X124147200Y-115148200D01*
X125248800Y-115148200D01*
X125248800Y-116499800D01*
X125248800Y-116499800D01*
G37*
G36*
X123248800Y-116499800D02*
X122147200Y-116499800D01*
X122147200Y-115148200D01*
X123248800Y-115148200D01*
X123248800Y-116499800D01*
X123248800Y-116499800D01*
G37*
G36*
X115413800Y-116487800D02*
X114912200Y-116487800D01*
X114912200Y-115986200D01*
X115413800Y-115986200D01*
X115413800Y-116487800D01*
X115413800Y-116487800D01*
G37*
G36*
X116313800Y-115937800D02*
X115812200Y-115937800D01*
X115812200Y-115436200D01*
X116313800Y-115436200D01*
X116313800Y-115937800D01*
X116313800Y-115937800D01*
G37*
G36*
X127285776Y-114770676D02*
X127286279Y-114774214D01*
X127287747Y-114777472D01*
X127290066Y-114780192D01*
X127293050Y-114782158D01*
X127296463Y-114783216D01*
X127300036Y-114783280D01*
X127303486Y-114782346D01*
X127307362Y-114779750D01*
X127319144Y-114768212D01*
X127401465Y-114714343D01*
X127492676Y-114677491D01*
X127589313Y-114659057D01*
X127687689Y-114659743D01*
X127784061Y-114679526D01*
X127874751Y-114717648D01*
X127956311Y-114772661D01*
X127962512Y-114778906D01*
X127965362Y-114781062D01*
X127968700Y-114782339D01*
X127972261Y-114782636D01*
X127975764Y-114781928D01*
X127978931Y-114780273D01*
X127981512Y-114777801D01*
X127983302Y-114774708D01*
X127984224Y-114769957D01*
X127984224Y-113709196D01*
X129685770Y-113709196D01*
X129685770Y-114810794D01*
X128024689Y-114810794D01*
X128021151Y-114811297D01*
X128017893Y-114812765D01*
X128015173Y-114815084D01*
X128013207Y-114818068D01*
X128012149Y-114821481D01*
X128012085Y-114825054D01*
X128013019Y-114828504D01*
X128015677Y-114832443D01*
X128025635Y-114842470D01*
X128080073Y-114924408D01*
X128117564Y-115015368D01*
X128136654Y-115111781D01*
X128136654Y-115111785D01*
X128136671Y-115111871D01*
X128135102Y-115224238D01*
X128135084Y-115224317D01*
X128135084Y-115224328D01*
X128113308Y-115320170D01*
X128073294Y-115410044D01*
X128016583Y-115490437D01*
X127945342Y-115558279D01*
X127862280Y-115610991D01*
X127770553Y-115646570D01*
X127673672Y-115663653D01*
X127575317Y-115661592D01*
X127479230Y-115640466D01*
X127389082Y-115601081D01*
X127308296Y-115544934D01*
X127239957Y-115474166D01*
X127186664Y-115391472D01*
X127150448Y-115300002D01*
X127132690Y-115203244D01*
X127134064Y-115104867D01*
X127154516Y-115008644D01*
X127193273Y-114918219D01*
X127248853Y-114837046D01*
X127253425Y-114832568D01*
X127255601Y-114829733D01*
X127256901Y-114826404D01*
X127257222Y-114822845D01*
X127256539Y-114819337D01*
X127254906Y-114816158D01*
X127252452Y-114813561D01*
X127249371Y-114811749D01*
X127244539Y-114810794D01*
X125584230Y-114810794D01*
X125584230Y-113709196D01*
X127285776Y-113709196D01*
X127285776Y-114770676D01*
X127285776Y-114770676D01*
G37*
G36*
X115413800Y-115387800D02*
X114912200Y-115387800D01*
X114912200Y-114886200D01*
X115413800Y-114886200D01*
X115413800Y-115387800D01*
X115413800Y-115387800D01*
G37*
G36*
X116313800Y-114837800D02*
X115812200Y-114837800D01*
X115812200Y-114336200D01*
X116313800Y-114336200D01*
X116313800Y-114837800D01*
X116313800Y-114837800D01*
G37*
G36*
X110263800Y-114587800D02*
X109762200Y-114587800D01*
X109762200Y-114086200D01*
X110263800Y-114086200D01*
X110263800Y-114587800D01*
X110263800Y-114587800D01*
G37*
G36*
X124706800Y-114334800D02*
X123705200Y-114334800D01*
X123705200Y-113733200D01*
X124706800Y-113733200D01*
X124706800Y-114334800D01*
X124706800Y-114334800D01*
G37*
G36*
X115413800Y-114287800D02*
X114912200Y-114287800D01*
X114912200Y-113786200D01*
X115413800Y-113786200D01*
X115413800Y-114287800D01*
X115413800Y-114287800D01*
G37*
G36*
X119730800Y-114271800D02*
X119029200Y-114271800D01*
X119029200Y-112770200D01*
X119730800Y-112770200D01*
X119730800Y-114271800D01*
X119730800Y-114271800D01*
G37*
G36*
X121000800Y-114271800D02*
X120299200Y-114271800D01*
X120299200Y-112770200D01*
X121000800Y-112770200D01*
X121000800Y-114271800D01*
X121000800Y-114271800D01*
G37*
G36*
X118460800Y-114271800D02*
X117759200Y-114271800D01*
X117759200Y-112770200D01*
X118460800Y-112770200D01*
X118460800Y-114271800D01*
X118460800Y-114271800D01*
G37*
G36*
X122270800Y-114271800D02*
X121569200Y-114271800D01*
X121569200Y-112770200D01*
X122270800Y-112770200D01*
X122270800Y-114271800D01*
X122270800Y-114271800D01*
G37*
G36*
X116313800Y-113737800D02*
X115812200Y-113737800D01*
X115812200Y-113236200D01*
X116313800Y-113236200D01*
X116313800Y-113737800D01*
X116313800Y-113737800D01*
G37*
G36*
X115413800Y-113187800D02*
X114912200Y-113187800D01*
X114912200Y-112686200D01*
X115413800Y-112686200D01*
X115413800Y-113187800D01*
X115413800Y-113187800D01*
G37*
G36*
X124706800Y-112834800D02*
X123705200Y-112834800D01*
X123705200Y-112233200D01*
X124706800Y-112233200D01*
X124706800Y-112834800D01*
X124706800Y-112834800D01*
G37*
G36*
X116313800Y-112637800D02*
X115812200Y-112637800D01*
X115812200Y-112136200D01*
X116313800Y-112136200D01*
X116313800Y-112637800D01*
X116313800Y-112637800D01*
G37*
G36*
X114663800Y-112437800D02*
X114162200Y-112437800D01*
X114162200Y-111936200D01*
X114663800Y-111936200D01*
X114663800Y-112437800D01*
X114663800Y-112437800D01*
G37*
G36*
X113563800Y-112437800D02*
X113062200Y-112437800D01*
X113062200Y-111936200D01*
X113563800Y-111936200D01*
X113563800Y-112437800D01*
X113563800Y-112437800D01*
G37*
G36*
X109163800Y-112437800D02*
X108662200Y-112437800D01*
X108662200Y-111936200D01*
X109163800Y-111936200D01*
X109163800Y-112437800D01*
X109163800Y-112437800D01*
G37*
G36*
X108063800Y-112437800D02*
X107562200Y-112437800D01*
X107562200Y-111936200D01*
X108063800Y-111936200D01*
X108063800Y-112437800D01*
X108063800Y-112437800D01*
G37*
G36*
X112463800Y-112437800D02*
X111962200Y-112437800D01*
X111962200Y-111936200D01*
X112463800Y-111936200D01*
X112463800Y-112437800D01*
X112463800Y-112437800D01*
G37*
G36*
X111363800Y-112437800D02*
X110862200Y-112437800D01*
X110862200Y-111936200D01*
X111363800Y-111936200D01*
X111363800Y-112437800D01*
X111363800Y-112437800D01*
G37*
G36*
X110263800Y-112437800D02*
X109762200Y-112437800D01*
X109762200Y-111936200D01*
X110263800Y-111936200D01*
X110263800Y-112437800D01*
X110263800Y-112437800D01*
G37*
G36*
X127285776Y-112310799D02*
X125584230Y-112310799D01*
X125584230Y-111209201D01*
X127285776Y-111209201D01*
X127285776Y-112310799D01*
X127285776Y-112310799D01*
G37*
G36*
X129685770Y-112310799D02*
X127984224Y-112310799D01*
X127984224Y-111209201D01*
X129685770Y-111209201D01*
X129685770Y-112310799D01*
X129685770Y-112310799D01*
G37*
G36*
X116313800Y-111537800D02*
X115812200Y-111537800D01*
X115812200Y-111036200D01*
X116313800Y-111036200D01*
X116313800Y-111537800D01*
X116313800Y-111537800D01*
G37*
G36*
X115213800Y-111537800D02*
X114712200Y-111537800D01*
X114712200Y-111036200D01*
X115213800Y-111036200D01*
X115213800Y-111537800D01*
X115213800Y-111537800D01*
G37*
G36*
X109713800Y-111537800D02*
X109212200Y-111537800D01*
X109212200Y-111036200D01*
X109713800Y-111036200D01*
X109713800Y-111537800D01*
X109713800Y-111537800D01*
G37*
G36*
X110813800Y-111537800D02*
X110312200Y-111537800D01*
X110312200Y-111036200D01*
X110813800Y-111036200D01*
X110813800Y-111537800D01*
X110813800Y-111537800D01*
G37*
G36*
X111913800Y-111537800D02*
X111412200Y-111537800D01*
X111412200Y-111036200D01*
X111913800Y-111036200D01*
X111913800Y-111537800D01*
X111913800Y-111537800D01*
G37*
G36*
X113013800Y-111537800D02*
X112512200Y-111537800D01*
X112512200Y-111036200D01*
X113013800Y-111036200D01*
X113013800Y-111537800D01*
X113013800Y-111537800D01*
G37*
G36*
X114113800Y-111537800D02*
X113612200Y-111537800D01*
X113612200Y-111036200D01*
X114113800Y-111036200D01*
X114113800Y-111537800D01*
X114113800Y-111537800D01*
G37*
G36*
X107513800Y-111537800D02*
X107012200Y-111537800D01*
X107012200Y-111036200D01*
X107513800Y-111036200D01*
X107513800Y-111537800D01*
X107513800Y-111537800D01*
G37*
G36*
X108613800Y-111537800D02*
X108112200Y-111537800D01*
X108112200Y-111036200D01*
X108613800Y-111036200D01*
X108613800Y-111537800D01*
X108613800Y-111537800D01*
G37*
G36*
X124656800Y-111486800D02*
X123755200Y-111486800D01*
X123755200Y-110585200D01*
X124656800Y-110585200D01*
X124656800Y-111486800D01*
X124656800Y-111486800D01*
G37*
G36*
X124656800Y-109886800D02*
X123755200Y-109886800D01*
X123755200Y-108985200D01*
X124656800Y-108985200D01*
X124656800Y-109886800D01*
X124656800Y-109886800D01*
G37*
G36*
X127687689Y-107858639D02*
X127784061Y-107878422D01*
X127874751Y-107916544D01*
X127956311Y-107971557D01*
X128025635Y-108041367D01*
X128080073Y-108123304D01*
X128117564Y-108214264D01*
X128136654Y-108310677D01*
X128136654Y-108310681D01*
X128136671Y-108310767D01*
X128135102Y-108423134D01*
X128135084Y-108423213D01*
X128135084Y-108423224D01*
X128113308Y-108519066D01*
X128073294Y-108608940D01*
X128016687Y-108689185D01*
X128015059Y-108692366D01*
X128014381Y-108695875D01*
X128014707Y-108699434D01*
X128016012Y-108702761D01*
X128018192Y-108705592D01*
X128021075Y-108707705D01*
X128024432Y-108708930D01*
X128027065Y-108709206D01*
X129685770Y-108709206D01*
X129685770Y-109810804D01*
X127984224Y-109810804D01*
X127984224Y-108749779D01*
X127983721Y-108746241D01*
X127982253Y-108742983D01*
X127979934Y-108740263D01*
X127976950Y-108738297D01*
X127973537Y-108737239D01*
X127969964Y-108737175D01*
X127966514Y-108738109D01*
X127962766Y-108740582D01*
X127945342Y-108757175D01*
X127862280Y-108809887D01*
X127770553Y-108845466D01*
X127673672Y-108862549D01*
X127575317Y-108860488D01*
X127479230Y-108839362D01*
X127389082Y-108799977D01*
X127308293Y-108743828D01*
X127307611Y-108743122D01*
X127304792Y-108740926D01*
X127301472Y-108739603D01*
X127297915Y-108739256D01*
X127294403Y-108739915D01*
X127291213Y-108741526D01*
X127288598Y-108743962D01*
X127286765Y-108747030D01*
X127285776Y-108751944D01*
X127285776Y-109810804D01*
X125584230Y-109810804D01*
X125584230Y-108709206D01*
X127244941Y-108709206D01*
X127248479Y-108708703D01*
X127251737Y-108707235D01*
X127254457Y-108704916D01*
X127256423Y-108701932D01*
X127257481Y-108698519D01*
X127257545Y-108694946D01*
X127256611Y-108691496D01*
X127254077Y-108687684D01*
X127239957Y-108673062D01*
X127186664Y-108590368D01*
X127150448Y-108498898D01*
X127132690Y-108402140D01*
X127134064Y-108303763D01*
X127154516Y-108207540D01*
X127193273Y-108117115D01*
X127248852Y-108035942D01*
X127319144Y-107967108D01*
X127401465Y-107913239D01*
X127492676Y-107876387D01*
X127589313Y-107857953D01*
X127687689Y-107858639D01*
X127687689Y-107858639D01*
G37*
G36*
X115557300Y-109207300D02*
X113550700Y-109207300D01*
X113550700Y-107200700D01*
X115557300Y-107200700D01*
X115557300Y-109207300D01*
X115557300Y-109207300D01*
G37*
G36*
X113017300Y-109207300D02*
X111010700Y-109207300D01*
X111010700Y-107200700D01*
X113017300Y-107200700D01*
X113017300Y-109207300D01*
X113017300Y-109207300D01*
G37*
G36*
X110477300Y-109207300D02*
X108470700Y-109207300D01*
X108470700Y-107200700D01*
X110477300Y-107200700D01*
X110477300Y-109207300D01*
X110477300Y-109207300D01*
G37*
G36*
X107937300Y-109207300D02*
X105930700Y-109207300D01*
X105930700Y-107200700D01*
X107937300Y-107200700D01*
X107937300Y-109207300D01*
X107937300Y-109207300D01*
G37*
G36*
X105397300Y-109207300D02*
X103390700Y-109207300D01*
X103390700Y-107200700D01*
X105397300Y-107200700D01*
X105397300Y-109207300D01*
X105397300Y-109207300D01*
G37*
G36*
X118460800Y-108971800D02*
X117759200Y-108971800D01*
X117759200Y-107470200D01*
X118460800Y-107470200D01*
X118460800Y-108971800D01*
X118460800Y-108971800D01*
G37*
G36*
X119730800Y-108971800D02*
X119029200Y-108971800D01*
X119029200Y-107470200D01*
X119730800Y-107470200D01*
X119730800Y-108971800D01*
X119730800Y-108971800D01*
G37*
G36*
X121000800Y-108971800D02*
X120299200Y-108971800D01*
X120299200Y-107470200D01*
X121000800Y-107470200D01*
X121000800Y-108971800D01*
X121000800Y-108971800D01*
G37*
G36*
X122270800Y-108971800D02*
X121569200Y-108971800D01*
X121569200Y-107470200D01*
X122270800Y-107470200D01*
X122270800Y-108971800D01*
X122270800Y-108971800D01*
G37*
M02*
