G04 #@! TF.FileFunction,Soldermask,Bot*
%FSLAX46Y46*%
G04 Gerber Fmt 4.6, Leading zero omitted, Abs format (unit mm)*
G04 Created by KiCad (PCBNEW 4.0.7) date Monday, September 16, 2019 'PMt' 11:11:56 PM*
%MOMM*%
%LPD*%
G01*
G04 APERTURE LIST*
%ADD10C,0.100000*%
G04 APERTURE END LIST*
D10*
G36*
X130503728Y-117117227D02*
X130503731Y-117117228D01*
X130503741Y-117117229D01*
X130690794Y-117175132D01*
X130863038Y-117268264D01*
X131013912Y-117393077D01*
X131137670Y-117544819D01*
X131229597Y-117717709D01*
X131286192Y-117905162D01*
X131305300Y-118100037D01*
X131305300Y-120023963D01*
X131305202Y-120037971D01*
X131283375Y-120232561D01*
X131224168Y-120419205D01*
X131129836Y-120590794D01*
X131003972Y-120740793D01*
X130851370Y-120863489D01*
X130677843Y-120954207D01*
X130490000Y-121009492D01*
X130489995Y-121009492D01*
X130489990Y-121009494D01*
X130334055Y-121023684D01*
X130294996Y-121027239D01*
X130294993Y-121027239D01*
X130100272Y-121006773D01*
X130100269Y-121006772D01*
X130100259Y-121006771D01*
X129913206Y-120948868D01*
X129740962Y-120855736D01*
X129590088Y-120730923D01*
X129466330Y-120579181D01*
X129374403Y-120406291D01*
X129317808Y-120218838D01*
X129298700Y-120023963D01*
X129298700Y-118100037D01*
X129298798Y-118086029D01*
X129320625Y-117891439D01*
X129379832Y-117704795D01*
X129474164Y-117533206D01*
X129600028Y-117383207D01*
X129752630Y-117260511D01*
X129926157Y-117169793D01*
X130114000Y-117114508D01*
X130114005Y-117114508D01*
X130114010Y-117114506D01*
X130269945Y-117100316D01*
X130309005Y-117096761D01*
X130309007Y-117096761D01*
X130503728Y-117117227D01*
X130503728Y-117117227D01*
G37*
G36*
X128574800Y-117144800D02*
X125933200Y-117144800D01*
X125933200Y-110439200D01*
X128574800Y-110439200D01*
X128574800Y-117144800D01*
X128574800Y-117144800D01*
G37*
G36*
X110286800Y-117144800D02*
X107645200Y-117144800D01*
X107645200Y-110439200D01*
X110286800Y-110439200D01*
X110286800Y-117144800D01*
X110286800Y-117144800D01*
G37*
G36*
X120700800Y-116382800D02*
X115519200Y-116382800D01*
X115519200Y-111201200D01*
X120700800Y-111201200D01*
X120700800Y-116382800D01*
X120700800Y-116382800D01*
G37*
G36*
X127687689Y-107858639D02*
X127784061Y-107878422D01*
X127874751Y-107916544D01*
X127956311Y-107971557D01*
X128025635Y-108041367D01*
X128080073Y-108123304D01*
X128117564Y-108214264D01*
X128136654Y-108310677D01*
X128136654Y-108310681D01*
X128136671Y-108310767D01*
X128135102Y-108423134D01*
X128135084Y-108423213D01*
X128135084Y-108423224D01*
X128113308Y-108519066D01*
X128073294Y-108608940D01*
X128016583Y-108689333D01*
X127945342Y-108757175D01*
X127862280Y-108809887D01*
X127770553Y-108845466D01*
X127673672Y-108862549D01*
X127575317Y-108860488D01*
X127479230Y-108839362D01*
X127389082Y-108799977D01*
X127308296Y-108743830D01*
X127239957Y-108673062D01*
X127186664Y-108590368D01*
X127150448Y-108498898D01*
X127132690Y-108402140D01*
X127134064Y-108303763D01*
X127154516Y-108207540D01*
X127193273Y-108117115D01*
X127248852Y-108035942D01*
X127319144Y-107967108D01*
X127401465Y-107913239D01*
X127492676Y-107876387D01*
X127589313Y-107857953D01*
X127687689Y-107858639D01*
X127687689Y-107858639D01*
G37*
M02*
